<svg width="472" height="364" viewBox="0 0 472 364" fill="none" xmlns="http://www.w3.org/2000/svg">
<g clip-path="url(#clip0_10_750)">
<rect width="472" height="364" rx="8" fill="#F1FEF6"/>
<path opacity="0.06" d="M195.735 -204.35C99.0309 -235.08 44.8138 -181.126 24.7766 -119.739C4.7394 -58.3517 30.9675 25.367 15.6548 84.2064C0.342107 143.046 -57.8791 171.923 -57.8791 171.923" stroke="#10AA50" stroke-width="2"/>
<path opacity="0.06" d="M208.476 -87.1919C111.773 -117.921 57.5554 -63.9677 37.5183 -2.58057C17.4811 58.8066 43.7092 142.525 28.3965 201.365C13.0838 260.204 -45.1375 289.081 -45.1375 289.081" stroke="#10AA50" stroke-width="2"/>
<path opacity="0.06" d="M182.64 -102.658C83.8733 -88.7506 45.4823 -13.6495 41.1827 53.2951C36.883 120.24 81.6559 187.745 81.2155 250.182C80.7751 312.618 32.6153 365.788 32.6153 365.788" stroke="#10AA50" stroke-width="2"/>
<path opacity="0.06" d="M707.595 -156.869C559.367 -203.971 476.263 -121.271 445.55 -27.1758C414.836 66.919 455.039 195.244 431.568 285.433C408.096 375.623 318.854 419.885 318.854 419.885" stroke="#10AA50" stroke-width="2"/>
<path opacity="0.06" d="M627.902 41.3066C531.199 10.5774 476.982 64.5309 456.944 125.918C436.907 187.305 463.135 271.024 447.823 329.863C432.51 388.703 374.289 417.579 374.289 417.579" stroke="#10AA50" stroke-width="2"/>
<path d="M133.92 240.2H128.769V215.125H136.963L145.361 238.296L144.477 238.517V215.125H149.611V240.2H141.366L132.968 217.097L133.92 216.876V240.2ZM162.798 240.591C160.849 240.591 159.132 240.189 157.647 239.384C156.163 238.579 155.001 237.474 154.162 236.069C153.335 234.652 152.921 233.02 152.921 231.173C152.921 229.337 153.335 227.716 154.162 226.311C155.001 224.894 156.163 223.795 157.647 223.013C159.132 222.22 160.849 221.823 162.798 221.823C164.748 221.823 166.465 222.22 167.949 223.013C169.434 223.795 170.59 224.894 171.417 226.311C172.256 227.716 172.675 229.337 172.675 231.173C172.675 233.02 172.256 234.652 171.417 236.069C170.59 237.474 169.434 238.579 167.949 239.384C166.465 240.189 164.748 240.591 162.798 240.591ZM162.798 236.409C163.716 236.409 164.515 236.194 165.195 235.763C165.875 235.332 166.402 234.726 166.776 233.944C167.15 233.151 167.337 232.227 167.337 231.173C167.337 230.119 167.15 229.207 166.776 228.436C166.402 227.654 165.875 227.053 165.195 226.634C164.515 226.215 163.716 226.005 162.798 226.005C161.892 226.005 161.093 226.215 160.401 226.634C159.721 227.053 159.194 227.654 158.82 228.436C158.446 229.207 158.259 230.119 158.259 231.173C158.259 232.227 158.446 233.151 158.82 233.944C159.194 234.726 159.721 235.332 160.401 235.763C161.093 236.194 161.892 236.409 162.798 236.409ZM183.515 240.608C182.008 240.608 180.619 240.251 179.35 239.537C178.081 238.812 177.061 237.741 176.29 236.324C175.519 234.907 175.134 233.162 175.134 231.088C175.134 229.105 175.525 227.422 176.307 226.039C177.1 224.656 178.132 223.608 179.401 222.894C180.682 222.169 182.053 221.806 183.515 221.806C184.943 221.806 186.246 222.169 187.425 222.894C188.615 223.619 189.567 224.611 190.281 225.869C190.995 227.116 191.352 228.555 191.352 230.187C191.352 230.244 191.352 230.3 191.352 230.357C191.352 230.402 191.352 230.453 191.352 230.51L189.074 230.544C189.074 230.51 189.074 230.476 189.074 230.442C189.074 230.397 189.074 230.357 189.074 230.323C189.074 229.473 188.87 228.742 188.462 228.13C188.054 227.518 187.527 227.048 186.881 226.719C186.235 226.379 185.561 226.209 184.858 226.209C183.691 226.209 182.682 226.6 181.832 227.382C180.982 228.153 180.557 229.388 180.557 231.088C180.557 232.788 180.982 234.04 181.832 234.845C182.693 235.638 183.702 236.035 184.858 236.035C185.583 236.035 186.269 235.865 186.915 235.525C187.561 235.174 188.082 234.681 188.479 234.046C188.876 233.411 189.074 232.663 189.074 231.802L191.352 231.921C191.352 233.542 191.001 235.009 190.298 236.324C189.607 237.627 188.666 238.67 187.476 239.452C186.297 240.223 184.977 240.608 183.515 240.608ZM189.074 240.2V213.629H194.361V240.2H189.074ZM200.402 232.754V229.269H212.37L211.86 230.153C211.86 230.062 211.86 229.977 211.86 229.898C211.86 229.807 211.86 229.722 211.86 229.643C211.86 228.997 211.707 228.379 211.401 227.79C211.095 227.189 210.619 226.702 209.973 226.328C209.339 225.943 208.523 225.75 207.525 225.75C206.528 225.75 205.667 225.965 204.941 226.396C204.227 226.815 203.678 227.422 203.292 228.215C202.918 229.008 202.731 229.966 202.731 231.088C202.731 232.244 202.913 233.236 203.275 234.063C203.649 234.879 204.199 235.508 204.924 235.95C205.661 236.392 206.573 236.613 207.661 236.613C208.364 236.613 208.97 236.551 209.48 236.426C209.99 236.29 210.404 236.12 210.721 235.916C211.05 235.712 211.299 235.485 211.469 235.236C211.639 234.987 211.741 234.743 211.775 234.505H216.977C216.909 235.264 216.649 236.012 216.195 236.749C215.742 237.474 215.113 238.132 214.308 238.721C213.504 239.299 212.523 239.758 211.367 240.098C210.223 240.438 208.914 240.608 207.44 240.608C205.446 240.608 203.706 240.211 202.221 239.418C200.737 238.613 199.586 237.508 198.77 236.103C197.954 234.686 197.546 233.054 197.546 231.207C197.546 229.337 197.96 227.699 198.787 226.294C199.626 224.877 200.788 223.778 202.272 222.996C203.768 222.203 205.497 221.806 207.457 221.806C209.463 221.806 211.197 222.208 212.659 223.013C214.121 223.806 215.249 224.923 216.042 226.362C216.836 227.79 217.232 229.456 217.232 231.36C217.232 231.643 217.227 231.915 217.215 232.176C217.204 232.437 217.187 232.629 217.164 232.754H200.402ZM246.927 215.125H255.852V240.2H250.854V218.236L250.956 218.304L246.06 240.2H239.158L234.177 218.253L234.279 218.202V240.2H229.264V215.125H238.189L242.762 237.701H242.32L246.927 215.125ZM269.247 240.591C267.298 240.591 265.581 240.189 264.096 239.384C262.612 238.579 261.45 237.474 260.611 236.069C259.784 234.652 259.37 233.02 259.37 231.173C259.37 229.337 259.784 227.716 260.611 226.311C261.45 224.894 262.612 223.795 264.096 223.013C265.581 222.22 267.298 221.823 269.247 221.823C271.197 221.823 272.914 222.22 274.398 223.013C275.883 223.795 277.039 224.894 277.866 226.311C278.705 227.716 279.124 229.337 279.124 231.173C279.124 233.02 278.705 234.652 277.866 236.069C277.039 237.474 275.883 238.579 274.398 239.384C272.914 240.189 271.197 240.591 269.247 240.591ZM269.247 236.409C270.165 236.409 270.964 236.194 271.644 235.763C272.324 235.332 272.851 234.726 273.225 233.944C273.599 233.151 273.786 232.227 273.786 231.173C273.786 230.119 273.599 229.207 273.225 228.436C272.851 227.654 272.324 227.053 271.644 226.634C270.964 226.215 270.165 226.005 269.247 226.005C268.341 226.005 267.542 226.215 266.85 226.634C266.17 227.053 265.643 227.654 265.269 228.436C264.895 229.207 264.708 230.119 264.708 231.173C264.708 232.227 264.895 233.151 265.269 233.944C265.643 234.726 266.17 235.332 266.85 235.763C267.542 236.194 268.341 236.409 269.247 236.409ZM295.132 240.2V232.533C295.132 232.102 295.132 231.711 295.132 231.36C295.132 231.009 295.132 230.691 295.132 230.408C295.132 229.66 295.036 228.98 294.843 228.368C294.651 227.745 294.305 227.246 293.806 226.872C293.308 226.498 292.588 226.311 291.647 226.311C290.831 226.311 290.123 226.498 289.522 226.872C288.933 227.246 288.48 227.767 288.162 228.436C287.845 229.105 287.686 229.875 287.686 230.748L286.224 229.694C286.224 228.13 286.564 226.759 287.244 225.58C287.924 224.401 288.842 223.478 289.998 222.809C291.166 222.14 292.458 221.806 293.874 221.806C295.359 221.806 296.577 222.106 297.529 222.707C298.493 223.296 299.207 224.124 299.671 225.189C300.147 226.243 300.385 227.478 300.385 228.895C300.385 229.473 300.385 230.119 300.385 230.833C300.385 231.547 300.385 232.278 300.385 233.026V240.2H295.132ZM282.416 240.2V222.146H287.686V240.2H282.416ZM316.791 238.058C317.902 238.171 318.871 238.387 319.698 238.704C320.537 239.01 321.189 239.469 321.653 240.081C322.118 240.682 322.35 241.486 322.35 242.495C322.35 243.662 321.965 244.654 321.194 245.47C320.435 246.297 319.319 246.926 317.845 247.357C316.372 247.788 314.587 248.003 312.49 248.003C309.396 248.003 306.999 247.555 305.299 246.66C303.611 245.776 302.766 244.592 302.766 243.107C302.766 242.688 302.812 242.308 302.902 241.968C303.004 241.639 303.129 241.356 303.276 241.118L308.07 241.815C308.014 241.894 307.951 242.013 307.883 242.172C307.827 242.342 307.798 242.552 307.798 242.801C307.798 243.402 308.246 243.849 309.141 244.144C310.048 244.439 311.215 244.586 312.643 244.586C313.652 244.586 314.513 244.512 315.227 244.365C315.953 244.229 316.502 244.025 316.876 243.753C317.262 243.481 317.454 243.169 317.454 242.818C317.454 242.308 317.205 241.974 316.706 241.815C316.219 241.656 315.652 241.543 315.006 241.475L308.172 240.778C306.914 240.653 305.872 240.291 305.044 239.69C304.217 239.089 303.803 238.279 303.803 237.259C303.803 236.624 303.979 236.046 304.33 235.525C304.682 234.992 305.084 234.556 305.537 234.216C305.991 233.865 306.37 233.644 306.676 233.553L309.362 234.913C309.147 234.947 308.892 235.083 308.597 235.321C308.314 235.559 308.172 235.837 308.172 236.154C308.172 236.471 308.331 236.743 308.648 236.97C308.977 237.197 309.572 237.35 310.433 237.429L316.791 238.058ZM318.576 222.146H323.217L321.33 229.082C320.979 230.397 320.458 231.57 319.766 232.601C319.075 233.621 318.151 234.426 316.995 235.015C315.851 235.604 314.406 235.899 312.66 235.899C310.824 235.899 309.232 235.616 307.883 235.049C306.546 234.482 305.515 233.683 304.789 232.652C304.064 231.609 303.701 230.38 303.701 228.963C303.701 227.546 304.07 226.3 304.806 225.223C305.554 224.146 306.569 223.308 307.849 222.707C309.141 222.106 310.603 221.806 312.235 221.806C313.471 221.806 314.598 222.01 315.618 222.418C316.65 222.815 317.477 223.342 318.1 223.999C318.735 224.656 319.064 225.382 319.086 226.175L318.117 226.43L318.576 222.146ZM312.626 232.04C313.374 232.04 314.032 231.921 314.598 231.683C315.165 231.434 315.607 231.077 315.924 230.612C316.242 230.136 316.4 229.564 316.4 228.895C316.4 228.238 316.242 227.677 315.924 227.212C315.607 226.747 315.165 226.39 314.598 226.141C314.032 225.892 313.374 225.767 312.626 225.767C311.912 225.767 311.266 225.897 310.688 226.158C310.122 226.407 309.674 226.77 309.345 227.246C309.017 227.711 308.852 228.277 308.852 228.946C308.852 229.603 309.011 230.164 309.328 230.629C309.646 231.082 310.088 231.434 310.654 231.683C311.221 231.921 311.878 232.04 312.626 232.04ZM334.193 240.591C332.243 240.591 330.526 240.189 329.042 239.384C327.557 238.579 326.395 237.474 325.557 236.069C324.729 234.652 324.316 233.02 324.316 231.173C324.316 229.337 324.729 227.716 325.557 226.311C326.395 224.894 327.557 223.795 329.042 223.013C330.526 222.22 332.243 221.823 334.193 221.823C336.142 221.823 337.859 222.22 339.344 223.013C340.828 223.795 341.984 224.894 342.812 226.311C343.65 227.716 344.07 229.337 344.07 231.173C344.07 233.02 343.65 234.652 342.812 236.069C341.984 237.474 340.828 238.579 339.344 239.384C337.859 240.189 336.142 240.591 334.193 240.591ZM334.193 236.409C335.111 236.409 335.91 236.194 336.59 235.763C337.27 235.332 337.797 234.726 338.171 233.944C338.545 233.151 338.732 232.227 338.732 231.173C338.732 230.119 338.545 229.207 338.171 228.436C337.797 227.654 337.27 227.053 336.59 226.634C335.91 226.215 335.111 226.005 334.193 226.005C333.286 226.005 332.487 226.215 331.796 226.634C331.116 227.053 330.589 227.654 330.215 228.436C329.841 229.207 329.654 230.119 329.654 231.173C329.654 232.227 329.841 233.151 330.215 233.944C330.589 234.726 331.116 235.332 331.796 235.763C332.487 236.194 333.286 236.409 334.193 236.409ZM172.467 256.205L174.847 253.689V264.076L173.657 262.58H182.905V266.66H173.657L174.847 265.164V275.636L172.467 273.12H184.792V277.2H169.543V252.125H184.792V256.205H172.467ZM194.256 267.255L194.205 269.618L186.708 259.146H192.437L197.826 267.17L194.664 267.136L200.019 259.146H205.646L198.455 268.955L198.2 266.558L205.714 277.2H199.951L194.443 269.142L198.013 268.972L192.029 277.2H186.402L194.256 267.255ZM208.241 284.629V259.146H213.528V284.629H208.241ZM219.104 277.608C217.676 277.608 216.367 277.228 215.177 276.469C213.987 275.698 213.035 274.667 212.321 273.375C211.607 272.072 211.25 270.61 211.25 268.989C211.25 268.944 211.25 268.904 211.25 268.87C211.25 268.825 211.25 268.774 211.25 268.717L213.528 268.666C213.528 268.7 213.528 268.734 213.528 268.768C213.528 268.802 213.528 268.836 213.528 268.87C213.528 269.709 213.732 270.445 214.14 271.08C214.548 271.703 215.075 272.185 215.721 272.525C216.367 272.865 217.041 273.035 217.744 273.035C218.9 273.035 219.903 272.638 220.753 271.845C221.614 271.04 222.045 269.788 222.045 268.088C222.045 266.388 221.62 265.153 220.77 264.382C219.92 263.6 218.911 263.209 217.744 263.209C217.041 263.209 216.367 263.379 215.721 263.719C215.075 264.048 214.548 264.518 214.14 265.13C213.732 265.742 213.528 266.473 213.528 267.323L211.25 267.187C211.25 265.555 211.607 264.116 212.321 262.869C213.035 261.611 213.987 260.619 215.177 259.894C216.367 259.169 217.676 258.806 219.104 258.806C220.566 258.806 221.931 259.169 223.201 259.894C224.47 260.608 225.496 261.656 226.278 263.039C227.071 264.422 227.468 266.105 227.468 268.088C227.468 270.162 227.082 271.907 226.312 273.324C225.541 274.741 224.521 275.812 223.252 276.537C221.982 277.251 220.6 277.608 219.104 277.608ZM230.752 277.2V259.146H236.039V265.368L234.951 264.688C235.076 263.838 235.303 263.056 235.631 262.342C235.96 261.628 236.385 261.01 236.906 260.489C237.428 259.956 238.045 259.543 238.759 259.248C239.485 258.953 240.312 258.806 241.241 258.806C241.967 258.806 242.533 258.863 242.941 258.976C243.361 259.078 243.621 259.157 243.723 259.214L242.856 263.94C242.754 263.883 242.528 263.793 242.176 263.668C241.825 263.543 241.372 263.481 240.816 263.481C239.91 263.481 239.15 263.634 238.538 263.94C237.926 264.246 237.433 264.654 237.059 265.164C236.697 265.663 236.436 266.218 236.277 266.83C236.119 267.442 236.039 268.06 236.039 268.683V277.2H230.752ZM248.082 269.754V266.269H260.05L259.54 267.153C259.54 267.062 259.54 266.977 259.54 266.898C259.54 266.807 259.54 266.722 259.54 266.643C259.54 265.997 259.387 265.379 259.081 264.79C258.775 264.189 258.299 263.702 257.653 263.328C257.018 262.943 256.202 262.75 255.205 262.75C254.208 262.75 253.346 262.965 252.621 263.396C251.907 263.815 251.357 264.422 250.972 265.215C250.598 266.008 250.411 266.966 250.411 268.088C250.411 269.244 250.592 270.236 250.955 271.063C251.329 271.879 251.879 272.508 252.604 272.95C253.341 273.392 254.253 273.613 255.341 273.613C256.044 273.613 256.65 273.551 257.16 273.426C257.67 273.29 258.084 273.12 258.401 272.916C258.73 272.712 258.979 272.485 259.149 272.236C259.319 271.987 259.421 271.743 259.455 271.505H264.657C264.589 272.264 264.328 273.012 263.875 273.749C263.422 274.474 262.793 275.132 261.988 275.721C261.183 276.299 260.203 276.758 259.047 277.098C257.902 277.438 256.593 277.608 255.12 277.608C253.125 277.608 251.386 277.211 249.901 276.418C248.416 275.613 247.266 274.508 246.45 273.103C245.634 271.686 245.226 270.054 245.226 268.207C245.226 266.337 245.64 264.699 246.467 263.294C247.306 261.877 248.467 260.778 249.952 259.996C251.448 259.203 253.176 258.806 255.137 258.806C257.143 258.806 258.877 259.208 260.339 260.013C261.801 260.806 262.929 261.923 263.722 263.362C264.515 264.79 264.912 266.456 264.912 268.36C264.912 268.643 264.906 268.915 264.895 269.176C264.884 269.437 264.867 269.629 264.844 269.754H248.082ZM275.719 277.608C274.643 277.608 273.606 277.483 272.608 277.234C271.611 276.985 270.716 276.616 269.922 276.129C269.14 275.642 268.517 275.035 268.052 274.31C267.599 273.573 267.372 272.718 267.372 271.743C267.372 271.698 267.372 271.647 267.372 271.59C267.372 271.522 267.372 271.471 267.372 271.437H272.608C272.608 271.471 272.608 271.511 272.608 271.556C272.608 271.59 272.608 271.63 272.608 271.675C272.608 272.332 272.897 272.814 273.475 273.12C274.065 273.426 274.858 273.579 275.855 273.579C276.377 273.579 276.875 273.528 277.351 273.426C277.839 273.313 278.235 273.137 278.541 272.899C278.859 272.65 279.017 272.338 279.017 271.964C279.017 271.363 278.683 270.938 278.014 270.689C277.357 270.44 276.297 270.19 274.835 269.941C274.008 269.805 273.169 269.612 272.319 269.363C271.469 269.114 270.687 268.785 269.973 268.377C269.259 267.958 268.687 267.431 268.256 266.796C267.826 266.15 267.61 265.368 267.61 264.45C267.61 263.226 267.979 262.195 268.715 261.356C269.463 260.517 270.455 259.883 271.69 259.452C272.926 259.021 274.286 258.806 275.77 258.806C277.187 258.806 278.507 259.044 279.731 259.52C280.955 259.985 281.947 260.659 282.706 261.543C283.466 262.416 283.845 263.47 283.845 264.705C283.845 264.728 283.845 264.762 283.845 264.807C283.845 264.852 283.845 264.898 283.845 264.943H278.66C278.66 264.898 278.66 264.858 278.66 264.824C278.66 264.79 278.66 264.762 278.66 264.739C278.66 264.286 278.513 263.917 278.218 263.634C277.935 263.351 277.572 263.141 277.13 263.005C276.688 262.858 276.229 262.784 275.753 262.784C275.323 262.784 274.875 262.835 274.41 262.937C273.957 263.028 273.572 263.186 273.254 263.413C272.937 263.628 272.778 263.934 272.778 264.331C272.778 264.716 272.948 265.034 273.288 265.283C273.628 265.521 274.104 265.719 274.716 265.878C275.328 266.025 276.037 266.167 276.841 266.303C277.601 266.428 278.4 266.603 279.238 266.83C280.088 267.045 280.882 267.357 281.618 267.765C282.366 268.162 282.967 268.689 283.42 269.346C283.885 269.992 284.117 270.814 284.117 271.811C284.117 272.842 283.879 273.726 283.403 274.463C282.927 275.2 282.281 275.8 281.465 276.265C280.661 276.718 279.76 277.053 278.762 277.268C277.776 277.495 276.762 277.608 275.719 277.608ZM294.911 277.608C293.834 277.608 292.797 277.483 291.8 277.234C290.803 276.985 289.907 276.616 289.114 276.129C288.332 275.642 287.709 275.035 287.244 274.31C286.791 273.573 286.564 272.718 286.564 271.743C286.564 271.698 286.564 271.647 286.564 271.59C286.564 271.522 286.564 271.471 286.564 271.437H291.8C291.8 271.471 291.8 271.511 291.8 271.556C291.8 271.59 291.8 271.63 291.8 271.675C291.8 272.332 292.089 272.814 292.667 273.12C293.256 273.426 294.05 273.579 295.047 273.579C295.568 273.579 296.067 273.528 296.543 273.426C297.03 273.313 297.427 273.137 297.733 272.899C298.05 272.65 298.209 272.338 298.209 271.964C298.209 271.363 297.875 270.938 297.206 270.689C296.549 270.44 295.489 270.19 294.027 269.941C293.2 269.805 292.361 269.612 291.511 269.363C290.661 269.114 289.879 268.785 289.165 268.377C288.451 267.958 287.879 267.431 287.448 266.796C287.017 266.15 286.802 265.368 286.802 264.45C286.802 263.226 287.17 262.195 287.907 261.356C288.655 260.517 289.647 259.883 290.882 259.452C292.117 259.021 293.477 258.806 294.962 258.806C296.379 258.806 297.699 259.044 298.923 259.52C300.147 259.985 301.139 260.659 301.898 261.543C302.657 262.416 303.037 263.47 303.037 264.705C303.037 264.728 303.037 264.762 303.037 264.807C303.037 264.852 303.037 264.898 303.037 264.943H297.852C297.852 264.898 297.852 264.858 297.852 264.824C297.852 264.79 297.852 264.762 297.852 264.739C297.852 264.286 297.705 263.917 297.41 263.634C297.127 263.351 296.764 263.141 296.322 263.005C295.88 262.858 295.421 262.784 294.945 262.784C294.514 262.784 294.067 262.835 293.602 262.937C293.149 263.028 292.763 263.186 292.446 263.413C292.129 263.628 291.97 263.934 291.97 264.331C291.97 264.716 292.14 265.034 292.48 265.283C292.82 265.521 293.296 265.719 293.908 265.878C294.52 266.025 295.228 266.167 296.033 266.303C296.792 266.428 297.591 266.603 298.43 266.83C299.28 267.045 300.073 267.357 300.81 267.765C301.558 268.162 302.159 268.689 302.612 269.346C303.077 269.992 303.309 270.814 303.309 271.811C303.309 272.842 303.071 273.726 302.595 274.463C302.119 275.2 301.473 275.8 300.657 276.265C299.852 276.718 298.951 277.053 297.954 277.268C296.968 277.495 295.954 277.608 294.911 277.608Z" fill="#12924F"/>
<path fill-rule="evenodd" clip-rule="evenodd" d="M193.453 98.3925L234.044 73.6925C234.801 73.2301 235.648 73 236.495 73C236.496 73 236.498 73 236.5 73V182.2C235.651 182.201 234.802 181.97 234.042 181.507L193.451 156.787C191.934 155.862 191 154.156 191 152.309V102.868C191 101.022 191.934 99.3151 193.453 98.3925Z" fill="#12924F"/>
<path fill-rule="evenodd" clip-rule="evenodd" d="M279.547 98.3925L238.956 73.6925C238.199 73.2301 237.352 73 236.505 73C236.504 73 236.502 73 236.5 73V182.2C237.349 182.201 238.198 181.97 238.958 181.507L279.549 156.787C281.066 155.862 282 154.156 282 152.309V102.868C282 101.022 281.066 99.3151 279.547 98.3925Z" fill="#10AA50"/>
<path d="M256.968 123.334C252.153 101.143 241.745 95.152 239.114 90.9602C238.031 89.1143 237.073 87.1971 236.249 85.2218C236.09 87.1877 235.819 88.4247 234.133 89.9011C230.748 92.8636 216.382 104.352 214.95 129.501C213.616 152.95 231.847 167.585 234.259 169.102C236.116 170.038 238.397 169.16 239.513 168.328C248.421 162.334 260.665 146.249 256.978 123.334" fill="#10AA50"/>
<path d="M239.588 168.286C237.094 167.105 236.42 161.679 236.355 156.629C237.051 148.305 237.308 139.951 237.126 131.601C237.036 127.219 237.563 91.031 236.47 85.7222C237.234 87.5239 238.118 89.2726 239.114 90.9568C241.745 95.1519 252.156 101.143 256.968 123.334C260.666 146.209 248.487 162.253 239.588 168.286Z" fill="#12924F"/>
</g>
<defs>
<clipPath id="clip0_10_750">
<rect width="472" height="364" fill="white"/>
</clipPath>
</defs>
</svg>
