<svg width="472" height="364" viewBox="0 0 472 364" fill="none" xmlns="http://www.w3.org/2000/svg">
<g clip-path="url(#clip0_16_789)">
<rect width="472" height="364" rx="8" fill="#F1FEF6"/>
<path opacity="0.06" d="M195.735 -204.35C99.0309 -235.08 44.8138 -181.126 24.7766 -119.739C4.7394 -58.3517 30.9675 25.367 15.6548 84.2064C0.342107 143.046 -57.8791 171.923 -57.8791 171.923" stroke="#10AA50" stroke-width="2"/>
<path opacity="0.06" d="M208.476 -87.1919C111.773 -117.921 57.5554 -63.9677 37.5183 -2.58057C17.4811 58.8066 43.7092 142.525 28.3965 201.365C13.0838 260.204 -45.1375 289.081 -45.1375 289.081" stroke="#10AA50" stroke-width="2"/>
<path opacity="0.06" d="M182.64 -102.658C83.8733 -88.7506 45.4823 -13.6495 41.1827 53.2951C36.883 120.24 81.6559 187.745 81.2155 250.182C80.7751 312.618 32.6153 365.788 32.6153 365.788" stroke="#10AA50" stroke-width="2"/>
<path opacity="0.06" d="M707.595 -156.869C559.367 -203.971 476.263 -121.271 445.55 -27.1758C414.836 66.919 455.039 195.244 431.568 285.433C408.096 375.623 318.854 419.885 318.854 419.885" stroke="#10AA50" stroke-width="2"/>
<path opacity="0.06" d="M627.902 41.3066C531.199 10.5774 476.982 64.5309 456.944 125.918C436.907 187.305 463.135 271.024 447.823 329.863C432.51 388.703 374.289 417.579 374.289 417.579" stroke="#10AA50" stroke-width="2"/>
<path d="M138.14 236.2H132.853V211.125H141.438C143.354 211.125 144.991 211.499 146.351 212.247C147.723 212.984 148.765 213.987 149.479 215.256C150.205 216.514 150.567 217.936 150.567 219.523C150.567 221.098 150.199 222.543 149.462 223.858C148.737 225.161 147.694 226.21 146.334 227.003C144.974 227.785 143.342 228.176 141.438 228.176H138.14V236.2ZM138.14 226.544L135.76 224.096H140.877C141.761 224.096 142.532 223.92 143.189 223.569C143.847 223.206 144.357 222.685 144.719 222.005C145.082 221.314 145.263 220.486 145.263 219.523C145.263 218.548 145.082 217.744 144.719 217.109C144.368 216.463 143.864 215.987 143.206 215.681C142.56 215.364 141.784 215.205 140.877 215.205H135.76L138.14 212.689V226.544ZM159.111 236.574C157.796 236.574 156.623 236.364 155.592 235.945C154.572 235.526 153.773 234.919 153.195 234.126C152.617 233.333 152.328 232.369 152.328 231.236C152.328 229.955 152.679 228.913 153.382 228.108C154.084 227.303 155.014 226.691 156.17 226.272C157.337 225.841 158.601 225.558 159.961 225.422C161.944 225.229 163.31 225.054 164.058 224.895C164.817 224.736 165.197 224.459 165.197 224.062C165.197 224.051 165.197 224.039 165.197 224.028C165.197 223.359 164.874 222.832 164.228 222.447C163.593 222.062 162.703 221.869 161.559 221.869C160.346 221.869 159.417 222.09 158.771 222.532C158.136 222.963 157.819 223.626 157.819 224.521H152.634C152.634 223.07 153.025 221.846 153.807 220.849C154.6 219.852 155.671 219.098 157.02 218.588C158.368 218.067 159.893 217.806 161.593 217.806C163.179 217.806 164.647 218.05 165.996 218.537C167.344 219.013 168.427 219.733 169.243 220.696C170.07 221.659 170.484 222.883 170.484 224.368C170.484 224.606 170.484 224.844 170.484 225.082C170.484 225.309 170.484 225.541 170.484 225.779V232.171C170.484 232.636 170.495 233.083 170.518 233.514C170.552 233.933 170.62 234.319 170.722 234.67C170.835 235.067 170.977 235.395 171.147 235.656C171.317 235.917 171.458 236.098 171.572 236.2H166.387C166.307 236.121 166.183 235.956 166.013 235.707C165.854 235.458 165.718 235.169 165.605 234.84C165.469 234.443 165.367 234.047 165.299 233.65C165.242 233.242 165.214 232.766 165.214 232.222L166.302 232.97C165.984 233.718 165.469 234.364 164.755 234.908C164.052 235.441 163.213 235.854 162.239 236.149C161.275 236.432 160.233 236.574 159.111 236.574ZM160.522 232.63C161.349 232.63 162.12 232.483 162.834 232.188C163.559 231.882 164.148 231.406 164.602 230.76C165.055 230.114 165.282 229.27 165.282 228.227V226.408L166.591 227.683C165.843 227.955 164.976 228.182 163.99 228.363C163.015 228.533 162.04 228.669 161.066 228.771C159.91 228.884 159.043 229.083 158.465 229.366C157.898 229.638 157.615 230.103 157.615 230.76C157.615 231.383 157.858 231.854 158.346 232.171C158.833 232.477 159.558 232.63 160.522 232.63ZM174.34 236.2V218.146H179.627V224.368L178.539 223.688C178.664 222.838 178.891 222.056 179.219 221.342C179.548 220.628 179.973 220.01 180.494 219.489C181.016 218.956 181.633 218.543 182.347 218.248C183.073 217.953 183.9 217.806 184.829 217.806C185.555 217.806 186.121 217.863 186.529 217.976C186.949 218.078 187.209 218.157 187.311 218.214L186.444 222.94C186.342 222.883 186.116 222.793 185.764 222.668C185.413 222.543 184.96 222.481 184.404 222.481C183.498 222.481 182.738 222.634 182.126 222.94C181.514 223.246 181.021 223.654 180.647 224.164C180.285 224.663 180.024 225.218 179.865 225.83C179.707 226.442 179.627 227.06 179.627 227.683V236.2H174.34ZM198.742 236.608C196.759 236.608 195.019 236.211 193.523 235.418C192.027 234.613 190.865 233.497 190.038 232.069C189.222 230.641 188.814 228.992 188.814 227.122C188.814 225.229 189.222 223.592 190.038 222.209C190.865 220.815 192.027 219.733 193.523 218.962C195.019 218.191 196.759 217.806 198.742 217.806C200.227 217.806 201.541 218.027 202.686 218.469C203.831 218.9 204.788 219.472 205.559 220.186C206.33 220.9 206.913 221.682 207.31 222.532C207.707 223.382 207.905 224.226 207.905 225.065C207.905 225.076 207.905 225.099 207.905 225.133C207.905 225.156 207.905 225.178 207.905 225.201H202.686C202.686 225.133 202.68 225.071 202.669 225.014C202.669 224.946 202.658 224.878 202.635 224.81C202.544 224.334 202.346 223.886 202.04 223.467C201.734 223.048 201.303 222.708 200.748 222.447C200.204 222.175 199.524 222.039 198.708 222.039C197.835 222.039 197.053 222.232 196.362 222.617C195.682 223.002 195.144 223.575 194.747 224.334C194.35 225.082 194.152 226.011 194.152 227.122C194.152 228.21 194.35 229.151 194.747 229.944C195.144 230.726 195.682 231.327 196.362 231.746C197.053 232.165 197.835 232.375 198.708 232.375C199.603 232.375 200.334 232.239 200.901 231.967C201.468 231.684 201.893 231.31 202.176 230.845C202.459 230.369 202.629 229.848 202.686 229.281H207.905C207.905 230.12 207.707 230.975 207.31 231.848C206.925 232.709 206.347 233.497 205.576 234.211C204.817 234.925 203.865 235.503 202.72 235.945C201.575 236.387 200.249 236.608 198.742 236.608ZM213.219 228.754V225.269H225.187L224.677 226.153C224.677 226.062 224.677 225.977 224.677 225.898C224.677 225.807 224.677 225.722 224.677 225.643C224.677 224.997 224.524 224.379 224.218 223.79C223.912 223.189 223.436 222.702 222.79 222.328C222.155 221.943 221.339 221.75 220.342 221.75C219.344 221.75 218.483 221.965 217.758 222.396C217.044 222.815 216.494 223.422 216.109 224.215C215.735 225.008 215.548 225.966 215.548 227.088C215.548 228.244 215.729 229.236 216.092 230.063C216.466 230.879 217.015 231.508 217.741 231.95C218.477 232.392 219.39 232.613 220.478 232.613C221.18 232.613 221.787 232.551 222.297 232.426C222.807 232.29 223.22 232.12 223.538 231.916C223.866 231.712 224.116 231.485 224.286 231.236C224.456 230.987 224.558 230.743 224.592 230.505H229.794C229.726 231.264 229.465 232.012 229.012 232.749C228.558 233.474 227.929 234.132 227.125 234.721C226.32 235.299 225.34 235.758 224.184 236.098C223.039 236.438 221.73 236.608 220.257 236.608C218.262 236.608 216.522 236.211 215.038 235.418C213.553 234.613 212.403 233.508 211.587 232.103C210.771 230.686 210.363 229.054 210.363 227.207C210.363 225.337 210.776 223.699 211.604 222.294C212.442 220.877 213.604 219.778 215.089 218.996C216.585 218.203 218.313 217.806 220.274 217.806C222.28 217.806 224.014 218.208 225.476 219.013C226.938 219.806 228.065 220.923 228.859 222.362C229.652 223.79 230.049 225.456 230.049 227.36C230.049 227.643 230.043 227.915 230.032 228.176C230.02 228.437 230.003 228.629 229.981 228.754H213.219ZM238.799 209.629V236.2H233.597V209.629H238.799ZM256.672 236.2H251.521V211.125H259.715L268.113 234.296L267.229 234.517V211.125H272.363V236.2H264.118L255.72 213.097L256.672 212.876V236.2ZM285.55 236.591C283.601 236.591 281.884 236.189 280.399 235.384C278.915 234.579 277.753 233.474 276.914 232.069C276.087 230.652 275.673 229.02 275.673 227.173C275.673 225.337 276.087 223.716 276.914 222.311C277.753 220.894 278.915 219.795 280.399 219.013C281.884 218.22 283.601 217.823 285.55 217.823C287.5 217.823 289.217 218.22 290.701 219.013C292.186 219.795 293.342 220.894 294.169 222.311C295.008 223.716 295.427 225.337 295.427 227.173C295.427 229.02 295.008 230.652 294.169 232.069C293.342 233.474 292.186 234.579 290.701 235.384C289.217 236.189 287.5 236.591 285.55 236.591ZM285.55 232.409C286.468 232.409 287.267 232.194 287.947 231.763C288.627 231.332 289.154 230.726 289.528 229.944C289.902 229.151 290.089 228.227 290.089 227.173C290.089 226.119 289.902 225.207 289.528 224.436C289.154 223.654 288.627 223.053 287.947 222.634C287.267 222.215 286.468 222.005 285.55 222.005C284.644 222.005 283.845 222.215 283.153 222.634C282.473 223.053 281.946 223.654 281.572 224.436C281.198 225.207 281.011 226.119 281.011 227.173C281.011 228.227 281.198 229.151 281.572 229.944C281.946 230.726 282.473 231.332 283.153 231.763C283.845 232.194 284.644 232.409 285.55 232.409ZM306.267 236.608C304.76 236.608 303.371 236.251 302.102 235.537C300.833 234.812 299.813 233.741 299.042 232.324C298.271 230.907 297.886 229.162 297.886 227.088C297.886 225.105 298.277 223.422 299.059 222.039C299.852 220.656 300.884 219.608 302.153 218.894C303.434 218.169 304.805 217.806 306.267 217.806C307.695 217.806 308.998 218.169 310.177 218.894C311.367 219.619 312.319 220.611 313.033 221.869C313.747 223.116 314.104 224.555 314.104 226.187C314.104 226.244 314.104 226.3 314.104 226.357C314.104 226.402 314.104 226.453 314.104 226.51L311.826 226.544C311.826 226.51 311.826 226.476 311.826 226.442C311.826 226.397 311.826 226.357 311.826 226.323C311.826 225.473 311.622 224.742 311.214 224.13C310.806 223.518 310.279 223.048 309.633 222.719C308.987 222.379 308.313 222.209 307.61 222.209C306.443 222.209 305.434 222.6 304.584 223.382C303.734 224.153 303.309 225.388 303.309 227.088C303.309 228.788 303.734 230.04 304.584 230.845C305.445 231.638 306.454 232.035 307.61 232.035C308.335 232.035 309.021 231.865 309.667 231.525C310.313 231.174 310.834 230.681 311.231 230.046C311.628 229.411 311.826 228.663 311.826 227.802L314.104 227.921C314.104 229.542 313.753 231.009 313.05 232.324C312.359 233.627 311.418 234.67 310.228 235.452C309.049 236.223 307.729 236.608 306.267 236.608ZM311.826 236.2V209.629H317.113V236.2H311.826ZM323.154 228.754V225.269H335.122L334.612 226.153C334.612 226.062 334.612 225.977 334.612 225.898C334.612 225.807 334.612 225.722 334.612 225.643C334.612 224.997 334.459 224.379 334.153 223.79C333.847 223.189 333.371 222.702 332.725 222.328C332.091 221.943 331.275 221.75 330.277 221.75C329.28 221.75 328.419 221.965 327.693 222.396C326.979 222.815 326.43 223.422 326.044 224.215C325.67 225.008 325.483 225.966 325.483 227.088C325.483 228.244 325.665 229.236 326.027 230.063C326.401 230.879 326.951 231.508 327.676 231.95C328.413 232.392 329.325 232.613 330.413 232.613C331.116 232.613 331.722 232.551 332.232 232.426C332.742 232.29 333.156 232.12 333.473 231.916C333.802 231.712 334.051 231.485 334.221 231.236C334.391 230.987 334.493 230.743 334.527 230.505H339.729C339.661 231.264 339.401 232.012 338.947 232.749C338.494 233.474 337.865 234.132 337.06 234.721C336.256 235.299 335.275 235.758 334.119 236.098C332.975 236.438 331.666 236.608 330.192 236.608C328.198 236.608 326.458 236.211 324.973 235.418C323.489 234.613 322.338 233.508 321.522 232.103C320.706 230.686 320.298 229.054 320.298 227.207C320.298 225.337 320.712 223.699 321.539 222.294C322.378 220.877 323.54 219.778 325.024 218.996C326.52 218.203 328.249 217.806 330.209 217.806C332.215 217.806 333.949 218.208 335.411 219.013C336.873 219.806 338.001 220.923 338.794 222.362C339.588 223.79 339.984 225.456 339.984 227.36C339.984 227.643 339.979 227.915 339.967 228.176C339.956 228.437 339.939 228.629 339.916 228.754H323.154ZM124.009 248.125H132.934V273.2H127.936V251.236L128.038 251.304L123.142 273.2H116.24L111.259 251.253L111.361 251.202V273.2H106.346V248.125H115.271L119.844 270.701H119.402L124.009 248.125ZM146.33 273.591C144.38 273.591 142.663 273.189 141.179 272.384C139.694 271.579 138.532 270.474 137.694 269.069C136.866 267.652 136.453 266.02 136.453 264.173C136.453 262.337 136.866 260.716 137.694 259.311C138.532 257.894 139.694 256.795 141.179 256.013C142.663 255.22 144.38 254.823 146.33 254.823C148.279 254.823 149.996 255.22 151.481 256.013C152.965 256.795 154.121 257.894 154.949 259.311C155.787 260.716 156.207 262.337 156.207 264.173C156.207 266.02 155.787 267.652 154.949 269.069C154.121 270.474 152.965 271.579 151.481 272.384C149.996 273.189 148.279 273.591 146.33 273.591ZM146.33 269.409C147.248 269.409 148.047 269.194 148.727 268.763C149.407 268.332 149.934 267.726 150.308 266.944C150.682 266.151 150.869 265.227 150.869 264.173C150.869 263.119 150.682 262.207 150.308 261.436C149.934 260.654 149.407 260.053 148.727 259.634C148.047 259.215 147.248 259.005 146.33 259.005C145.423 259.005 144.624 259.215 143.933 259.634C143.253 260.053 142.726 260.654 142.352 261.436C141.978 262.207 141.791 263.119 141.791 264.173C141.791 265.227 141.978 266.151 142.352 266.944C142.726 267.726 143.253 268.332 143.933 268.763C144.624 269.194 145.423 269.409 146.33 269.409ZM172.214 273.2V265.533C172.214 265.102 172.214 264.711 172.214 264.36C172.214 264.009 172.214 263.691 172.214 263.408C172.214 262.66 172.118 261.98 171.925 261.368C171.733 260.745 171.387 260.246 170.888 259.872C170.39 259.498 169.67 259.311 168.729 259.311C167.913 259.311 167.205 259.498 166.604 259.872C166.015 260.246 165.562 260.767 165.244 261.436C164.927 262.105 164.768 262.875 164.768 263.748L163.306 262.694C163.306 261.13 163.646 259.759 164.326 258.58C165.006 257.401 165.924 256.478 167.08 255.809C168.248 255.14 169.54 254.806 170.956 254.806C172.441 254.806 173.659 255.106 174.611 255.707C175.575 256.296 176.289 257.124 176.753 258.189C177.229 259.243 177.467 260.478 177.467 261.895C177.467 262.473 177.467 263.119 177.467 263.833C177.467 264.547 177.467 265.278 177.467 266.026V273.2H172.214ZM159.498 273.2V255.146H164.768V273.2H159.498ZM193.873 271.058C194.984 271.171 195.953 271.387 196.78 271.704C197.619 272.01 198.271 272.469 198.735 273.081C199.2 273.682 199.432 274.486 199.432 275.495C199.432 276.662 199.047 277.654 198.276 278.47C197.517 279.297 196.401 279.926 194.927 280.357C193.454 280.788 191.669 281.003 189.572 281.003C186.478 281.003 184.081 280.555 182.381 279.66C180.693 278.776 179.848 277.592 179.848 276.107C179.848 275.688 179.894 275.308 179.984 274.968C180.086 274.639 180.211 274.356 180.358 274.118L185.152 274.815C185.096 274.894 185.033 275.013 184.965 275.172C184.909 275.342 184.88 275.552 184.88 275.801C184.88 276.402 185.328 276.849 186.223 277.144C187.13 277.439 188.297 277.586 189.725 277.586C190.734 277.586 191.595 277.512 192.309 277.365C193.035 277.229 193.584 277.025 193.958 276.753C194.344 276.481 194.536 276.169 194.536 275.818C194.536 275.308 194.287 274.974 193.788 274.815C193.301 274.656 192.734 274.543 192.088 274.475L185.254 273.778C183.996 273.653 182.954 273.291 182.126 272.69C181.299 272.089 180.885 271.279 180.885 270.259C180.885 269.624 181.061 269.046 181.412 268.525C181.764 267.992 182.166 267.556 182.619 267.216C183.073 266.865 183.452 266.644 183.758 266.553L186.444 267.913C186.229 267.947 185.974 268.083 185.679 268.321C185.396 268.559 185.254 268.837 185.254 269.154C185.254 269.471 185.413 269.743 185.73 269.97C186.059 270.197 186.654 270.35 187.515 270.429L193.873 271.058ZM195.658 255.146H200.299L198.412 262.082C198.061 263.397 197.54 264.57 196.848 265.601C196.157 266.621 195.233 267.426 194.077 268.015C192.933 268.604 191.488 268.899 189.742 268.899C187.906 268.899 186.314 268.616 184.965 268.049C183.628 267.482 182.597 266.683 181.871 265.652C181.146 264.609 180.783 263.38 180.783 261.963C180.783 260.546 181.152 259.3 181.888 258.223C182.636 257.146 183.651 256.308 184.931 255.707C186.223 255.106 187.685 254.806 189.317 254.806C190.553 254.806 191.68 255.01 192.7 255.418C193.732 255.815 194.559 256.342 195.182 256.999C195.817 257.656 196.146 258.382 196.168 259.175L195.199 259.43L195.658 255.146ZM189.708 265.04C190.456 265.04 191.114 264.921 191.68 264.683C192.247 264.434 192.689 264.077 193.006 263.612C193.324 263.136 193.482 262.564 193.482 261.895C193.482 261.238 193.324 260.677 193.006 260.212C192.689 259.747 192.247 259.39 191.68 259.141C191.114 258.892 190.456 258.767 189.708 258.767C188.994 258.767 188.348 258.897 187.77 259.158C187.204 259.407 186.756 259.77 186.427 260.246C186.099 260.711 185.934 261.277 185.934 261.946C185.934 262.603 186.093 263.164 186.41 263.629C186.728 264.082 187.17 264.434 187.736 264.683C188.303 264.921 188.96 265.04 189.708 265.04ZM211.275 273.591C209.325 273.591 207.608 273.189 206.124 272.384C204.639 271.579 203.477 270.474 202.639 269.069C201.811 267.652 201.398 266.02 201.398 264.173C201.398 262.337 201.811 260.716 202.639 259.311C203.477 257.894 204.639 256.795 206.124 256.013C207.608 255.22 209.325 254.823 211.275 254.823C213.224 254.823 214.941 255.22 216.426 256.013C217.91 256.795 219.066 257.894 219.894 259.311C220.732 260.716 221.152 262.337 221.152 264.173C221.152 266.02 220.732 267.652 219.894 269.069C219.066 270.474 217.91 271.579 216.426 272.384C214.941 273.189 213.224 273.591 211.275 273.591ZM211.275 269.409C212.193 269.409 212.992 269.194 213.672 268.763C214.352 268.332 214.879 267.726 215.253 266.944C215.627 266.151 215.814 265.227 215.814 264.173C215.814 263.119 215.627 262.207 215.253 261.436C214.879 260.654 214.352 260.053 213.672 259.634C212.992 259.215 212.193 259.005 211.275 259.005C210.368 259.005 209.569 259.215 208.878 259.634C208.198 260.053 207.671 260.654 207.297 261.436C206.923 262.207 206.736 263.119 206.736 264.173C206.736 265.227 206.923 266.151 207.297 266.944C207.671 267.726 208.198 268.332 208.878 268.763C209.569 269.194 210.368 269.409 211.275 269.409ZM235.885 252.205L238.265 249.689V260.076L237.075 258.58H246.323V262.66H237.075L238.265 261.164V271.636L235.885 269.12H248.21V273.2H232.961V248.125H248.21V252.205H235.885ZM257.674 263.255L257.623 265.618L250.126 255.146H255.855L261.244 263.17L258.082 263.136L263.437 255.146H269.064L261.873 264.955L261.618 262.558L269.132 273.2H263.369L257.861 265.142L261.431 264.972L255.447 273.2H249.82L257.674 263.255ZM271.659 280.629V255.146H276.946V280.629H271.659ZM282.522 273.608C281.094 273.608 279.785 273.228 278.595 272.469C277.405 271.698 276.453 270.667 275.739 269.375C275.025 268.072 274.668 266.61 274.668 264.989C274.668 264.944 274.668 264.904 274.668 264.87C274.668 264.825 274.668 264.774 274.668 264.717L276.946 264.666C276.946 264.7 276.946 264.734 276.946 264.768C276.946 264.802 276.946 264.836 276.946 264.87C276.946 265.709 277.15 266.445 277.558 267.08C277.966 267.703 278.493 268.185 279.139 268.525C279.785 268.865 280.459 269.035 281.162 269.035C282.318 269.035 283.321 268.638 284.171 267.845C285.032 267.04 285.463 265.788 285.463 264.088C285.463 262.388 285.038 261.153 284.188 260.382C283.338 259.6 282.329 259.209 281.162 259.209C280.459 259.209 279.785 259.379 279.139 259.719C278.493 260.048 277.966 260.518 277.558 261.13C277.15 261.742 276.946 262.473 276.946 263.323L274.668 263.187C274.668 261.555 275.025 260.116 275.739 258.869C276.453 257.611 277.405 256.619 278.595 255.894C279.785 255.169 281.094 254.806 282.522 254.806C283.984 254.806 285.349 255.169 286.619 255.894C287.888 256.608 288.914 257.656 289.696 259.039C290.489 260.422 290.886 262.105 290.886 264.088C290.886 266.162 290.5 267.907 289.73 269.324C288.959 270.741 287.939 271.812 286.67 272.537C285.4 273.251 284.018 273.608 282.522 273.608ZM294.17 273.2V255.146H299.457V261.368L298.369 260.688C298.494 259.838 298.721 259.056 299.049 258.342C299.378 257.628 299.803 257.01 300.324 256.489C300.846 255.956 301.463 255.543 302.177 255.248C302.903 254.953 303.73 254.806 304.659 254.806C305.385 254.806 305.951 254.863 306.359 254.976C306.779 255.078 307.039 255.157 307.141 255.214L306.274 259.94C306.172 259.883 305.946 259.793 305.594 259.668C305.243 259.543 304.79 259.481 304.234 259.481C303.328 259.481 302.568 259.634 301.956 259.94C301.344 260.246 300.851 260.654 300.477 261.164C300.115 261.663 299.854 262.218 299.695 262.83C299.537 263.442 299.457 264.06 299.457 264.683V273.2H294.17ZM311.5 265.754V262.269H323.468L322.958 263.153C322.958 263.062 322.958 262.977 322.958 262.898C322.958 262.807 322.958 262.722 322.958 262.643C322.958 261.997 322.805 261.379 322.499 260.79C322.193 260.189 321.717 259.702 321.071 259.328C320.436 258.943 319.62 258.75 318.623 258.75C317.626 258.75 316.764 258.965 316.039 259.396C315.325 259.815 314.775 260.422 314.39 261.215C314.016 262.008 313.829 262.966 313.829 264.088C313.829 265.244 314.01 266.236 314.373 267.063C314.747 267.879 315.297 268.508 316.022 268.95C316.759 269.392 317.671 269.613 318.759 269.613C319.462 269.613 320.068 269.551 320.578 269.426C321.088 269.29 321.502 269.12 321.819 268.916C322.148 268.712 322.397 268.485 322.567 268.236C322.737 267.987 322.839 267.743 322.873 267.505H328.075C328.007 268.264 327.746 269.012 327.293 269.749C326.84 270.474 326.211 271.132 325.406 271.721C324.601 272.299 323.621 272.758 322.465 273.098C321.32 273.438 320.011 273.608 318.538 273.608C316.543 273.608 314.804 273.211 313.319 272.418C311.834 271.613 310.684 270.508 309.868 269.103C309.052 267.686 308.644 266.054 308.644 264.207C308.644 262.337 309.058 260.699 309.885 259.294C310.724 257.877 311.885 256.778 313.37 255.996C314.866 255.203 316.594 254.806 318.555 254.806C320.561 254.806 322.295 255.208 323.757 256.013C325.219 256.806 326.347 257.923 327.14 259.362C327.933 260.79 328.33 262.456 328.33 264.36C328.33 264.643 328.324 264.915 328.313 265.176C328.302 265.437 328.285 265.629 328.262 265.754H311.5ZM339.137 273.608C338.061 273.608 337.024 273.483 336.026 273.234C335.029 272.985 334.134 272.616 333.34 272.129C332.558 271.642 331.935 271.035 331.47 270.31C331.017 269.573 330.79 268.718 330.79 267.743C330.79 267.698 330.79 267.647 330.79 267.59C330.79 267.522 330.79 267.471 330.79 267.437H336.026C336.026 267.471 336.026 267.511 336.026 267.556C336.026 267.59 336.026 267.63 336.026 267.675C336.026 268.332 336.315 268.814 336.893 269.12C337.483 269.426 338.276 269.579 339.273 269.579C339.795 269.579 340.293 269.528 340.769 269.426C341.257 269.313 341.653 269.137 341.959 268.899C342.277 268.65 342.435 268.338 342.435 267.964C342.435 267.363 342.101 266.938 341.432 266.689C340.775 266.44 339.715 266.19 338.253 265.941C337.426 265.805 336.587 265.612 335.737 265.363C334.887 265.114 334.105 264.785 333.391 264.377C332.677 263.958 332.105 263.431 331.674 262.796C331.244 262.15 331.028 261.368 331.028 260.45C331.028 259.226 331.397 258.195 332.133 257.356C332.881 256.517 333.873 255.883 335.108 255.452C336.344 255.021 337.704 254.806 339.188 254.806C340.605 254.806 341.925 255.044 343.149 255.52C344.373 255.985 345.365 256.659 346.124 257.543C346.884 258.416 347.263 259.47 347.263 260.705C347.263 260.728 347.263 260.762 347.263 260.807C347.263 260.852 347.263 260.898 347.263 260.943H342.078C342.078 260.898 342.078 260.858 342.078 260.824C342.078 260.79 342.078 260.762 342.078 260.739C342.078 260.286 341.931 259.917 341.636 259.634C341.353 259.351 340.99 259.141 340.548 259.005C340.106 258.858 339.647 258.784 339.171 258.784C338.741 258.784 338.293 258.835 337.828 258.937C337.375 259.028 336.99 259.186 336.672 259.413C336.355 259.628 336.196 259.934 336.196 260.331C336.196 260.716 336.366 261.034 336.706 261.283C337.046 261.521 337.522 261.719 338.134 261.878C338.746 262.025 339.455 262.167 340.259 262.303C341.019 262.428 341.818 262.603 342.656 262.83C343.506 263.045 344.3 263.357 345.036 263.765C345.784 264.162 346.385 264.689 346.838 265.346C347.303 265.992 347.535 266.814 347.535 267.811C347.535 268.842 347.297 269.726 346.821 270.463C346.345 271.2 345.699 271.8 344.883 272.265C344.079 272.718 343.178 273.053 342.18 273.268C341.194 273.495 340.18 273.608 339.137 273.608ZM358.329 273.608C357.252 273.608 356.215 273.483 355.218 273.234C354.22 272.985 353.325 272.616 352.532 272.129C351.75 271.642 351.126 271.035 350.662 270.31C350.208 269.573 349.982 268.718 349.982 267.743C349.982 267.698 349.982 267.647 349.982 267.59C349.982 267.522 349.982 267.471 349.982 267.437H355.218C355.218 267.471 355.218 267.511 355.218 267.556C355.218 267.59 355.218 267.63 355.218 267.675C355.218 268.332 355.507 268.814 356.085 269.12C356.674 269.426 357.467 269.579 358.465 269.579C358.986 269.579 359.485 269.528 359.961 269.426C360.448 269.313 360.845 269.137 361.151 268.899C361.468 268.65 361.627 268.338 361.627 267.964C361.627 267.363 361.292 266.938 360.624 266.689C359.966 266.44 358.907 266.19 357.445 265.941C356.617 265.805 355.779 265.612 354.929 265.363C354.079 265.114 353.297 264.785 352.583 264.377C351.869 263.958 351.296 263.431 350.866 262.796C350.435 262.15 350.22 261.368 350.22 260.45C350.22 259.226 350.588 258.195 351.325 257.356C352.073 256.517 353.064 255.883 354.3 255.452C355.535 255.021 356.895 254.806 358.38 254.806C359.796 254.806 361.117 255.044 362.341 255.52C363.565 255.985 364.556 256.659 365.316 257.543C366.075 258.416 366.455 259.47 366.455 260.705C366.455 260.728 366.455 260.762 366.455 260.807C366.455 260.852 366.455 260.898 366.455 260.943H361.27C361.27 260.898 361.27 260.858 361.27 260.824C361.27 260.79 361.27 260.762 361.27 260.739C361.27 260.286 361.122 259.917 360.828 259.634C360.544 259.351 360.182 259.141 359.74 259.005C359.298 258.858 358.839 258.784 358.363 258.784C357.932 258.784 357.484 258.835 357.02 258.937C356.566 259.028 356.181 259.186 355.864 259.413C355.546 259.628 355.388 259.934 355.388 260.331C355.388 260.716 355.558 261.034 355.898 261.283C356.238 261.521 356.714 261.719 357.326 261.878C357.938 262.025 358.646 262.167 359.451 262.303C360.21 262.428 361.009 262.603 361.848 262.83C362.698 263.045 363.491 263.357 364.228 263.765C364.976 264.162 365.576 264.689 366.03 265.346C366.494 265.992 366.727 266.814 366.727 267.811C366.727 268.842 366.489 269.726 366.013 270.463C365.537 271.2 364.891 271.8 364.075 272.265C363.27 272.718 362.369 273.053 361.372 273.268C360.386 273.495 359.371 273.608 358.329 273.608Z" fill="#12924F"/>
<path d="M259.582 135.519L257.113 136.567L256.796 136.874L232.672 131.541L232.783 130.615H232.813C232.798 130.42 232.932 129.976 233.077 129.692L259.582 135.519Z" fill="url(#paint0_linear_16_789)"/>
<path opacity="0.75" d="M233.342 130.733V146.241L232.779 145.877H232.775L232.036 145.395V130.825L232.614 130.619H232.81L233.342 130.733Z" fill="url(#paint1_linear_16_789)"/>
<path d="M279.297 121.929L275.063 128.938L259.582 135.518L258.059 136.165L232.813 130.618C232.798 130.423 232.932 129.979 233.077 129.696C233.108 129.635 233.139 129.585 233.169 129.543L242.797 115.54C242.82 115.505 242.831 115.49 242.881 115.498L279.235 121.753L279.297 121.929Z" fill="url(#paint2_linear_16_789)"/>
<path d="M240.791 186.825L267.686 169.817C267.786 169.756 267.916 169.783 267.977 169.882C268.038 169.982 268.012 170.112 267.912 170.173L240.929 187.234C240.894 187.257 240.856 187.269 240.818 187.269L240.791 186.825Z" fill="url(#paint3_linear_16_789)"/>
<path d="M240.818 187.269C240.795 187.269 240.768 187.265 240.745 187.258L204.077 173.592C203.966 173.55 203.912 173.431 203.954 173.32C203.996 173.209 204.115 173.155 204.226 173.197L240.798 186.825L240.818 187.269Z" fill="url(#paint4_linear_16_789)"/>
<path d="M279.297 121.929L275.063 128.938L258.055 136.169L257.11 136.571L241.824 150.865C241.53 151.159 241.331 151.581 241.296 151.814C241.281 151.894 241.212 151.86 241.147 151.856C241.078 151.852 240.982 151.879 240.975 151.795C240.967 151.489 240.933 151.148 240.439 150.842L232.779 145.881L227.194 142.259L211.461 138.225L198.293 134.848L189.951 121.891L190.078 121.745L190.085 121.734L221.398 113.595C221.444 113.58 221.452 113.588 221.471 113.615L232.151 129.612L232.362 129.926C232.591 130.263 232.614 130.469 232.614 130.619H232.81C232.81 130.607 232.81 130.596 232.81 130.584C232.81 130.569 232.81 130.55 232.813 130.53C232.813 130.519 232.817 130.508 232.817 130.492C232.821 130.477 232.821 130.462 232.825 130.446C232.829 130.431 232.829 130.416 232.833 130.397C232.844 130.343 232.859 130.282 232.875 130.22C232.878 130.201 232.886 130.182 232.89 130.167C232.909 130.106 232.928 130.041 232.951 129.979C232.963 129.956 232.97 129.929 232.982 129.907C233.012 129.83 233.043 129.761 233.078 129.7C233.108 129.639 233.139 129.589 233.169 129.547L242.797 115.544C242.82 115.509 242.831 115.494 242.881 115.502L279.235 121.757L279.297 121.929Z" fill="#E8B67F"/>
<path d="M232.779 145.877H232.775L227.194 142.259L211.461 138.225L232.614 130.619L232.672 130.508V130.619L232.779 145.877Z" fill="url(#paint5_linear_16_789)"/>
<path d="M232.614 130.618L211.461 138.221L209.555 137.731L198.293 134.841L189.951 121.883L190.085 121.726L221.398 113.588C221.444 113.572 221.452 113.58 221.471 113.607L232.151 129.604L232.362 129.918C232.591 130.262 232.614 130.469 232.614 130.618Z" fill="url(#paint6_linear_16_789)"/>
<path d="M232.689 131.426L212.688 138.615L209.568 137.815L232.164 129.692L232.375 130.006C232.605 130.343 232.628 130.55 232.628 130.699H232.685L232.689 131.426Z" fill="url(#paint7_linear_16_789)"/>
<path d="M198.58 134.917L198.296 134.845L189.955 121.887L190.081 121.741L198.58 134.917Z" fill="#D2A679"/>
<path d="M258.055 136.169L257.11 136.571L241.825 150.865C241.53 151.159 241.331 151.58 241.296 151.814C241.281 151.894 241.212 151.86 241.147 151.856C241.078 151.852 240.982 151.879 240.975 151.795C240.967 151.489 240.933 151.148 240.439 150.842L232.779 145.877L232.676 130.622V130.511L232.817 130.622L258.055 136.169Z" fill="url(#paint8_linear_16_789)"/>
<path fill-rule="evenodd" clip-rule="evenodd" d="M216.738 93.4742L235.08 82.3129C235.422 82.104 235.805 82 236.187 82C236.188 82 236.189 82 236.189 82V131.344C235.806 131.345 235.422 131.241 235.079 131.031L216.737 119.861C216.051 119.443 215.629 118.672 215.629 117.838V95.4967C215.629 94.6624 216.051 93.8911 216.738 93.4742ZM256.75 117.848C256.75 117.845 256.75 117.841 256.75 117.838V95.4976C256.75 95.494 256.75 95.4905 256.75 95.4869V117.848Z" fill="#12924F"/>
<path fill-rule="evenodd" clip-rule="evenodd" d="M255.641 93.4742L237.299 82.3129C236.957 82.104 236.574 82 236.192 82C236.191 82 236.19 82 236.189 82V131.344C236.573 131.345 236.957 131.241 237.3 131.031L255.642 119.861C256.327 119.443 256.75 118.672 256.75 117.838V95.4967C256.75 94.6624 256.328 93.8911 255.641 93.4742ZM215.629 117.853C215.629 117.848 215.629 117.843 215.629 117.838V95.4976C215.629 95.4926 215.629 95.4875 215.629 95.4825V117.853Z" fill="#10AA50"/>
<path d="M245.438 104.745C243.262 94.7178 238.559 92.0104 237.371 90.1163C236.881 89.2821 236.448 88.4158 236.076 87.5232C236.004 88.4116 235.882 88.9705 235.12 89.6377C233.59 90.9763 227.099 96.1676 226.452 107.532C225.849 118.128 234.087 124.741 235.177 125.427C236.016 125.849 237.046 125.453 237.551 125.077C241.576 122.368 247.109 115.1 245.443 104.745" fill="#10AA50"/>
<path d="M237.585 125.058C236.458 124.524 236.153 122.072 236.124 119.79C236.438 116.029 236.555 112.254 236.472 108.481C236.431 106.501 236.669 90.1484 236.176 87.7495C236.521 88.5636 236.92 89.3539 237.371 90.1149C238.559 92.0105 243.264 94.718 245.438 104.745C247.109 115.082 241.606 122.331 237.585 125.058Z" fill="#12924F"/>
<path d="M240.668 187.02L203.969 173.327C203.763 173.239 203.732 173.044 203.721 172.803C203.721 172.803 202.143 141.528 202.14 141.525C202.136 141.444 202.235 141.394 202.228 141.345C202.201 141.226 201.975 140.778 201.902 140.732L187 132.265L187.126 131.978L227.194 142.259L240.435 150.838C240.929 151.144 240.967 151.485 240.971 151.791C240.975 151.875 241.074 151.849 241.143 151.852C241.212 151.856 241.277 151.891 241.292 151.81C241.327 151.577 241.526 151.156 241.821 150.865L257.106 136.571L284.824 124.789L284.993 125.022L270.029 138.171C269.738 138.462 269.604 138.818 269.661 138.964L268.13 169.614C268.107 169.809 268.015 169.867 267.82 170.001L240.994 186.982C240.887 187.051 240.772 187.07 240.668 187.02Z" fill="#BF9064"/>
<path d="M241.143 151.852L240.879 187.035C240.806 187.055 240.733 187.051 240.664 187.02L203.966 173.331C203.759 173.243 203.728 173.044 203.717 172.807C203.717 172.807 202.136 141.532 202.136 141.528V141.521C202.136 141.513 202.136 141.505 202.14 141.498C202.14 141.49 202.143 141.486 202.147 141.482C202.151 141.475 202.155 141.471 202.159 141.463C202.163 141.456 202.166 141.452 202.17 141.444C202.186 141.421 202.209 141.398 202.216 141.379C202.22 141.375 202.22 141.371 202.22 141.368C202.22 141.368 202.22 141.368 202.22 141.364L240.975 151.807C240.99 151.875 241.082 151.849 241.143 151.852Z" fill="#BD8F63"/>
<path opacity="0.54" d="M240.883 186.932V187.032C240.81 187.051 240.737 187.047 240.668 187.016L203.97 173.328C203.824 173.266 203.767 173.148 203.74 173.002L240.883 186.932Z" fill="url(#paint9_linear_16_789)"/>
<path d="M224.288 165.591L238.498 170.238L238.463 184.096L224.518 178.974L224.288 165.591ZM231.408 174.901L231.443 181.32L238.325 183.849L238.326 177.305L231.408 174.901ZM233.442 176.975L234.833 179.188L236.195 177.995L236.432 178.265L235.026 179.497L236.435 181.739L236.231 181.867L234.843 179.657L233.487 180.846L233.25 180.575L234.649 179.349L233.238 177.103L233.442 176.975ZM237.537 179.468V180.099L237.901 180.218V180.93L237.537 180.784V181.359L236.741 180.149L237.537 179.468ZM236.312 178.698L236.592 178.786V181.309L236.312 181.209V178.698ZM224.568 172.524L224.671 178.844L231.248 181.248L231.209 174.843L224.568 172.524ZM234.85 180.057L235.569 181.217L234.134 180.696L234.85 180.057ZM235.96 178.993V180.639L235.213 179.586L235.96 178.993ZM233.112 177.527L233.388 177.619V180.137L233.112 180.042V177.527ZM233.732 178.204L234.444 179.303L233.732 179.85V178.204ZM227.783 175.153L228.055 175.241L228.056 175.403C228.865 175.729 229.664 176.54 230.05 177.802C229.797 177.377 229.575 177.297 229.181 177.431C229.035 177.129 228.606 176.968 228.35 177.129C228.28 176.995 228.177 176.896 228.064 176.831L228.078 179.234C228.078 179.456 227.925 179.655 227.546 179.579C227.201 179.494 227.06 179.23 227.098 178.778L227.29 178.809C227.29 179.111 227.312 179.284 227.542 179.337C227.737 179.383 227.825 179.311 227.825 179.131L227.8 176.748C227.691 176.74 227.591 176.767 227.519 176.83C227.431 176.608 227.014 176.309 226.7 176.531C226.478 176.179 226.061 176.045 225.827 176.302C226.125 175.4 226.935 175.084 227.785 175.312L227.783 175.153ZM232.14 177.5L232.917 178.725L232.147 179.364L232.163 178.763L231.787 178.675V177.978L232.14 178.109V177.5ZM234.111 177.764L235.566 178.292L234.838 178.932L234.111 177.764ZM231.397 168.118L231.412 174.663L238.329 177.075V170.388L231.397 168.118ZM232.687 173.771L236.821 175.184V176.007L232.687 174.583V173.771ZM229.112 175.329L229.127 175.333C229.154 175.36 229.154 175.647 229.066 175.712C229.024 175.731 228.959 175.735 228.905 175.693C228.851 175.651 228.821 175.59 228.844 175.498C228.867 175.406 229.096 175.306 229.127 175.333L229.112 175.329ZM229.495 174.674L229.51 174.679C229.54 174.705 229.54 174.993 229.449 175.058C229.406 175.077 229.341 175.081 229.288 175.039C229.234 174.996 229.204 174.935 229.226 174.843C229.249 174.751 229.479 174.652 229.51 174.679L229.495 174.674ZM228.423 174.648L228.438 174.652C228.469 174.679 228.469 174.966 228.377 175.031C228.335 175.05 228.269 175.054 228.216 175.012C228.162 174.97 228.132 174.908 228.155 174.817C228.178 174.725 228.407 174.625 228.438 174.652L228.423 174.648ZM227.34 174.491L227.355 174.495C227.385 174.522 227.385 174.809 227.293 174.874C227.251 174.893 227.186 174.897 227.133 174.855C227.079 174.813 227.048 174.751 227.071 174.66C227.094 174.568 227.324 174.468 227.355 174.495L227.34 174.491ZM235.88 170.192L236.882 172.171L236.197 171.938V174.805L235.512 174.568L235.516 171.723L234.834 171.501L235.88 170.192ZM224.438 165.836L224.556 172.294L231.213 174.583L231.156 168.041L224.438 165.836ZM233.617 169.438L234.62 171.417L233.935 171.184V174.051L233.25 173.814L233.257 170.969L232.572 170.747L233.617 169.438ZM225.927 167.134L226.47 167.314L226.723 168.229L226.44 168.209L227.247 170.162L226.83 168.554L227.068 168.55L226.826 167.428L229.632 168.355V169.898C229.632 170.483 228.997 171.222 228.101 170.855L228.105 172.405L229.391 173.232L226.279 172.152L227.531 172.213L227.508 170.678C226.62 170.414 225.977 169.346 225.977 168.696L225.927 167.134Z" fill="#322214"/>
<path d="M241.143 151.852C240.99 151.856 240.875 152.059 240.871 152.243L240.837 152.258L202.136 141.524C202.132 141.452 202.216 141.406 202.224 141.36C202.228 141.356 202.228 141.352 202.224 141.348C202.197 141.23 201.971 140.782 201.899 140.736L187 132.264L187.126 131.977L227.19 142.255H227.194L240.435 150.834C240.929 151.144 240.967 151.481 240.971 151.787C240.971 151.791 240.971 151.799 240.975 151.802C240.99 151.875 241.082 151.848 241.143 151.852Z" fill="url(#paint10_linear_16_789)"/>
<path d="M270.033 138.167C269.742 138.458 269.608 138.814 269.665 138.959L241.48 152.296L241.422 152.25C241.418 152.028 241.277 151.879 241.17 151.856C241.227 151.864 241.281 151.883 241.296 151.81C241.304 151.764 241.315 151.71 241.334 151.653C241.35 151.603 241.372 151.55 241.399 151.492C241.48 151.309 241.602 151.109 241.759 150.933C241.782 150.91 241.805 150.884 241.828 150.861L257.113 136.567L284.832 124.784L285 125.018L270.033 138.167Z" fill="#CD9C6B"/>
<path d="M223.749 155.359C223.791 155.37 223.806 155.374 223.806 155.34L223.66 147.554C223.649 147.289 223.584 146.769 223.266 146.558L209.152 137.984L202.538 136.276L216.881 144.847C217.241 145.085 217.272 145.529 217.287 145.858L217.494 153.43C217.494 153.468 217.501 153.475 217.528 153.487L223.749 155.359Z" fill="url(#paint11_linear_16_789)"/>
<path d="M241.143 151.853C240.986 151.856 240.871 152.071 240.871 152.258C240.867 152.274 240.841 152.27 240.837 152.258C240.806 151.841 240.634 151.374 240.408 151.21L227.06 142.604L227.19 142.256H227.194L240.435 150.834C240.929 151.144 240.967 151.481 240.971 151.788C240.971 151.791 240.971 151.799 240.975 151.803C240.99 151.876 241.082 151.849 241.143 151.853Z" fill="#D4A271"/>
<path d="M227.19 142.26L227.06 142.604L187 132.265L187.126 131.981L227.19 142.26Z" fill="#DEB37E"/>
<path d="M269.669 138.96L268.138 169.611C268.115 169.806 268.023 169.863 267.828 169.997L241.001 186.978C240.963 187.005 240.921 187.02 240.883 187.032L241.147 151.849C241.216 151.853 241.281 151.887 241.296 151.807C241.296 151.795 241.3 151.788 241.3 151.776L269.661 138.926C269.661 138.945 269.665 138.952 269.669 138.96Z" fill="#DBAD77"/>
<path opacity="0.54" d="M268.138 169.599V169.614C268.115 169.809 268.023 169.867 267.828 170.001L241.001 186.982C240.963 187.009 240.921 187.024 240.883 187.035V186.936L268.138 169.599Z" fill="url(#paint12_linear_16_789)"/>
<path d="M267.636 156.262L267.024 168.741L258.105 174.296L258.564 161.307L267.636 156.262ZM262.867 165.296L258.434 167.903L258.223 174.047L262.637 171.302L262.867 165.296ZM260.75 167.933L260.742 168.14C261.271 167.876 261.772 168.06 261.983 168.936C261.837 168.734 261.573 168.814 261.397 169.227C261.316 169.055 260.907 169.197 260.846 169.557C260.813 169.498 260.754 169.477 260.687 169.484L260.589 171.853C260.581 172.056 260.57 172.274 260.314 172.431C260.195 172.485 259.881 172.527 259.923 172.087L260.072 171.972C260.061 172.251 260.134 172.336 260.287 172.244C260.47 172.133 260.436 171.957 260.444 171.792L260.526 169.548C260.419 169.618 260.321 169.742 260.294 169.89C260.248 169.752 259.804 169.836 259.751 170.23C259.624 170.062 259.28 170.226 259.15 170.651C259.39 169.548 259.984 168.632 260.575 168.237L260.581 168.056L260.75 167.933ZM267.219 162.724L262.993 165.223L262.76 171.245L266.94 168.615L267.219 162.724ZM265.914 164.752L266.036 164.867L265.115 166.957L265.876 168.006L265.753 168.267L264.995 167.229L264.084 169.296L263.958 169.181L264.886 167.079L264.099 166.004L264.237 165.744L265.006 166.806L265.914 164.752ZM263.341 167.153L263.82 167.734L263.311 168.829V168.347L263.096 168.477L263.108 167.853L263.322 167.727L263.341 167.153ZM264.168 166.395L264.069 168.703L263.897 168.818L263.992 166.517L264.168 166.395ZM264.976 167.6L265.386 168.14L264.505 168.676L264.976 167.6ZM260.287 167.769C260.306 167.769 260.294 168.033 260.229 168.163C260.206 168.209 260.164 168.259 260.13 168.263C260.095 168.267 260.08 168.228 260.099 168.129C260.118 168.029 260.268 167.769 260.287 167.769ZM264.36 166.709L264.765 167.21L264.291 168.148L264.36 166.709ZM261.45 167.29C261.466 167.294 261.454 167.558 261.393 167.685C261.37 167.731 261.328 167.78 261.293 167.784C261.259 167.788 261.244 167.75 261.263 167.65C261.282 167.551 261.431 167.29 261.45 167.29ZM263.15 158.93L258.671 161.441L258.438 167.708L262.882 165.089L263.15 158.93ZM266.101 165.219L265.994 167.524L265.841 167.623L265.944 165.323L266.101 165.219ZM261.029 167.118C261.049 167.118 261.037 167.382 260.972 167.512C260.949 167.558 260.907 167.608 260.872 167.612C260.838 167.616 260.823 167.577 260.842 167.478C260.861 167.378 261.01 167.118 261.029 167.118ZM265.707 165.889L265.646 167.359L265.248 166.885L265.707 165.889ZM266.657 165.189L266.634 165.755L266.856 165.633L266.829 166.261L266.614 166.387L266.607 166.904L266.144 166.349L266.657 165.189ZM261.745 166.36C261.764 166.36 261.753 166.624 261.688 166.754C261.665 166.8 261.623 166.85 261.588 166.854C261.554 166.858 261.538 166.82 261.558 166.72C261.577 166.62 261.726 166.36 261.745 166.36ZM265.489 165.472L265.014 166.559L264.605 166.004L265.489 165.472ZM262.109 160.262L262.051 161.839C262.028 162.375 261.6 163.348 260.96 163.753L260.892 165.242L261.745 165.059L259.667 166.261L260.532 165.438L260.578 163.975C260.023 164.293 259.579 163.704 259.605 163.106L259.655 161.659L260.03 161.457L260.153 162.153L259.95 162.318L260.398 163.616L260.225 162.433L260.379 162.257L260.26 161.326L262.109 160.262ZM267.545 156.488L263.257 158.884L262.989 165.043L267.238 162.502L267.545 156.488ZM266.427 161.797L266.373 162.528L263.862 164.014L263.897 163.275L266.427 161.797ZM264.651 158.639L265.206 159.811L264.788 160.044L264.662 162.674L264.264 162.904L264.341 160.274L263.939 160.515L264.651 158.639ZM266.044 157.866L266.584 159.018L266.14 159.267L266.048 161.878L265.623 162.115L265.757 159.485L265.34 159.722L266.044 157.866Z" fill="#322214"/>
<path d="M257.335 136.87L242.18 150.957C241.752 151.366 241.468 151.979 241.48 152.296C241.472 152.312 241.434 152.323 241.419 152.296C241.438 152.051 241.281 151.883 241.166 151.856C241.223 151.864 241.277 151.883 241.292 151.81C241.3 151.764 241.311 151.711 241.331 151.653C241.346 151.604 241.369 151.55 241.396 151.493C241.487 151.286 241.637 151.048 241.82 150.865L257.106 136.571L257.335 136.87Z" fill="#D7AA77"/>
<path d="M253.994 153.958C253.994 154 254.013 154.019 254.039 154.007L258.591 151.672C258.599 151.668 258.602 151.661 258.606 151.645L258.859 144.185C258.867 143.775 259.096 143.369 259.41 143.09L274.527 129.504L269.926 131.476L254.732 145.241C254.342 145.624 254.208 146.076 254.2 146.459L253.994 153.958Z" fill="url(#paint13_linear_16_789)"/>
<path d="M257.335 136.87L284.996 125.018L284.828 124.789L257.109 136.567L257.335 136.87Z" fill="#F8CE93"/>
</g>
<defs>
<linearGradient id="paint0_linear_16_789" x1="246.026" y1="133.317" x2="246.059" y2="133.171" gradientUnits="userSpaceOnUse">
<stop stop-color="#AF6A38" stop-opacity="0"/>
<stop offset="0.086" stop-color="#AF6A38"/>
<stop offset="0.1977" stop-color="#B87542"/>
<stop offset="0.5828" stop-color="#D59C66"/>
<stop offset="0.7771" stop-color="#E4AF76"/>
<stop offset="0.9239" stop-color="#E4AF76" stop-opacity="0"/>
</linearGradient>
<linearGradient id="paint1_linear_16_789" x1="232.144" y1="138.431" x2="233.254" y2="138.431" gradientUnits="userSpaceOnUse">
<stop stop-color="#743F1A" stop-opacity="0"/>
<stop offset="0.4929" stop-color="#743F1A" stop-opacity="0.8872"/>
<stop offset="0.5" stop-color="#743F1A" stop-opacity="0.9"/>
<stop offset="0.5297" stop-color="#743F1A" stop-opacity="0.8466"/>
<stop offset="1" stop-color="#743F1A" stop-opacity="0"/>
</linearGradient>
<linearGradient id="paint2_linear_16_789" x1="251.939" y1="127.337" x2="254.717" y2="122.342" gradientUnits="userSpaceOnUse">
<stop offset="0.0327" stop-color="#E4AF76"/>
<stop offset="1" stop-color="#E9B880"/>
</linearGradient>
<linearGradient id="paint3_linear_16_789" x1="254.233" y1="178.44" x2="254.375" y2="178.665" gradientUnits="userSpaceOnUse">
<stop/>
<stop offset="1" stop-opacity="0"/>
</linearGradient>
<linearGradient id="paint4_linear_16_789" x1="222.433" y1="180.217" x2="222.414" y2="180.267" gradientUnits="userSpaceOnUse">
<stop/>
<stop offset="1" stop-opacity="0"/>
</linearGradient>
<linearGradient id="paint5_linear_16_789" x1="228.836" y1="137.662" x2="231.26" y2="138.666" gradientUnits="userSpaceOnUse">
<stop stop-color="#C37A44"/>
<stop offset="0.4442" stop-color="#BB713D"/>
<stop offset="0.6406" stop-color="#A05728"/>
<stop offset="1" stop-color="#964E23"/>
</linearGradient>
<linearGradient id="paint6_linear_16_789" x1="217.032" y1="128.69" x2="211.774" y2="121.31" gradientUnits="userSpaceOnUse">
<stop stop-color="#E9B880"/>
<stop offset="1" stop-color="#E4AF76"/>
</linearGradient>
<linearGradient id="paint7_linear_16_789" x1="221.335" y1="134.254" x2="221.236" y2="133.98" gradientUnits="userSpaceOnUse">
<stop stop-color="#C37A45" stop-opacity="0"/>
<stop offset="0.1334" stop-color="#C37A45"/>
<stop offset="0.2945" stop-color="#D08D55"/>
<stop offset="0.5021" stop-color="#DEA167"/>
<stop offset="0.6966" stop-color="#E8AF73"/>
<stop offset="0.8631" stop-color="#ECB477"/>
<stop offset="1" stop-color="#ECB477" stop-opacity="0"/>
</linearGradient>
<linearGradient id="paint8_linear_16_789" x1="244.711" y1="136.691" x2="239.903" y2="147.741" gradientUnits="userSpaceOnUse">
<stop offset="0.0881" stop-color="#AF6938"/>
<stop offset="0.4829" stop-color="#9A5227"/>
<stop offset="0.7792" stop-color="#8D4520"/>
</linearGradient>
<linearGradient id="paint9_linear_16_789" x1="222.275" y1="180.036" x2="222.283" y2="180.012" gradientUnits="userSpaceOnUse">
<stop stop-color="#322214"/>
<stop offset="0.2397" stop-color="#322314" stop-opacity="0.9891"/>
<stop offset="1" stop-color="#322214" stop-opacity="0"/>
</linearGradient>
<linearGradient id="paint10_linear_16_789" x1="214.819" y1="141.76" x2="214.514" y2="142.777" gradientUnits="userSpaceOnUse">
<stop offset="0.0476" stop-color="#C69866"/>
<stop offset="0.4156" stop-color="#BA8C5E"/>
<stop offset="0.8135" stop-color="#B5875B"/>
</linearGradient>
<linearGradient id="paint11_linear_16_789" x1="215.945" y1="145.219" x2="208.72" y2="137.195" gradientUnits="userSpaceOnUse">
<stop stop-color="#845F35"/>
<stop offset="0.4311" stop-color="#91673C"/>
<stop offset="0.4407" stop-color="#976A40"/>
<stop offset="0.8737" stop-color="#986B40"/>
<stop offset="1" stop-color="#AB8157"/>
</linearGradient>
<linearGradient id="paint12_linear_16_789" x1="254.51" y1="178.318" x2="254.527" y2="178.345" gradientUnits="userSpaceOnUse">
<stop stop-color="#322214" stop-opacity="0"/>
<stop offset="1" stop-color="#322214"/>
</linearGradient>
<linearGradient id="paint13_linear_16_789" x1="263.368" y1="144.851" x2="264.762" y2="137.803" gradientUnits="userSpaceOnUse">
<stop stop-color="#A9794B"/>
<stop offset="0.3857" stop-color="#AE7F53"/>
<stop offset="0.4557" stop-color="#AC7D50"/>
<stop offset="0.6236" stop-color="#A9794B"/>
<stop offset="1" stop-color="#B2875D"/>
</linearGradient>
<clipPath id="clip0_16_789">
<rect width="472" height="364" fill="white"/>
</clipPath>
</defs>
</svg>
