<svg width="1092" height="364" viewBox="0 0 1092 364" fill="none" xmlns="http://www.w3.org/2000/svg">
<g clip-path="url(#clip0_16_661)">
<rect width="1092" height="364" rx="8" fill="#F1FEF6"/>
<path opacity="0.06" d="M195.735 -204.35C99.0309 -235.08 44.8138 -181.126 24.7766 -119.739C4.7394 -58.3517 30.9675 25.367 15.6548 84.2064C0.342107 143.046 -57.8791 171.923 -57.8791 171.923" stroke="#10AA50" stroke-width="2"/>
<path opacity="0.06" d="M208.476 -87.1919C111.773 -117.921 57.5554 -63.9677 37.5183 -2.58057C17.4811 58.8066 43.7092 142.525 28.3965 201.365C13.0838 260.204 -45.1375 289.081 -45.1375 289.081" stroke="#10AA50" stroke-width="2"/>
<path opacity="0.06" d="M182.64 -102.658C83.8733 -88.7506 45.4823 -13.6495 41.1827 53.2951C36.883 120.24 81.6559 187.745 81.2155 250.182C80.7751 312.618 32.6153 365.788 32.6153 365.788" stroke="#10AA50" stroke-width="2"/>
<path opacity="0.06" d="M1327.6 -156.869C1179.37 -203.971 1096.26 -121.271 1065.55 -27.1758C1034.84 66.919 1075.04 195.244 1051.57 285.433C1028.1 375.623 938.854 419.885 938.854 419.885" stroke="#10AA50" stroke-width="2"/>
<path opacity="0.06" d="M1247.9 41.3066C1151.2 10.5774 1096.98 64.5309 1076.94 125.918C1056.91 187.305 1083.14 271.024 1067.82 329.863C1052.51 388.703 994.289 417.579 994.289 417.579" stroke="#10AA50" stroke-width="2"/>
<path d="M448.14 236.2H442.853V211.125H451.438C453.354 211.125 454.991 211.499 456.351 212.247C457.723 212.984 458.765 213.987 459.479 215.256C460.205 216.514 460.567 217.936 460.567 219.523C460.567 221.098 460.199 222.543 459.462 223.858C458.737 225.161 457.694 226.21 456.334 227.003C454.974 227.785 453.342 228.176 451.438 228.176H448.14V236.2ZM448.14 226.544L445.76 224.096H450.877C451.761 224.096 452.532 223.92 453.189 223.569C453.847 223.206 454.357 222.685 454.719 222.005C455.082 221.314 455.263 220.486 455.263 219.523C455.263 218.548 455.082 217.744 454.719 217.109C454.368 216.463 453.864 215.987 453.206 215.681C452.56 215.364 451.784 215.205 450.877 215.205H445.76L448.14 212.689V226.544ZM469.111 236.574C467.796 236.574 466.623 236.364 465.592 235.945C464.572 235.526 463.773 234.919 463.195 234.126C462.617 233.333 462.328 232.369 462.328 231.236C462.328 229.955 462.679 228.913 463.382 228.108C464.084 227.303 465.014 226.691 466.17 226.272C467.337 225.841 468.601 225.558 469.961 225.422C471.944 225.229 473.31 225.054 474.058 224.895C474.817 224.736 475.197 224.459 475.197 224.062C475.197 224.051 475.197 224.039 475.197 224.028C475.197 223.359 474.874 222.832 474.228 222.447C473.593 222.062 472.703 221.869 471.559 221.869C470.346 221.869 469.417 222.09 468.771 222.532C468.136 222.963 467.819 223.626 467.819 224.521H462.634C462.634 223.07 463.025 221.846 463.807 220.849C464.6 219.852 465.671 219.098 467.02 218.588C468.368 218.067 469.893 217.806 471.593 217.806C473.179 217.806 474.647 218.05 475.996 218.537C477.344 219.013 478.427 219.733 479.243 220.696C480.07 221.659 480.484 222.883 480.484 224.368C480.484 224.606 480.484 224.844 480.484 225.082C480.484 225.309 480.484 225.541 480.484 225.779V232.171C480.484 232.636 480.495 233.083 480.518 233.514C480.552 233.933 480.62 234.319 480.722 234.67C480.835 235.067 480.977 235.395 481.147 235.656C481.317 235.917 481.458 236.098 481.572 236.2H476.387C476.307 236.121 476.183 235.956 476.013 235.707C475.854 235.458 475.718 235.169 475.605 234.84C475.469 234.443 475.367 234.047 475.299 233.65C475.242 233.242 475.214 232.766 475.214 232.222L476.302 232.97C475.984 233.718 475.469 234.364 474.755 234.908C474.052 235.441 473.213 235.854 472.239 236.149C471.275 236.432 470.233 236.574 469.111 236.574ZM470.522 232.63C471.349 232.63 472.12 232.483 472.834 232.188C473.559 231.882 474.148 231.406 474.602 230.76C475.055 230.114 475.282 229.27 475.282 228.227V226.408L476.591 227.683C475.843 227.955 474.976 228.182 473.99 228.363C473.015 228.533 472.04 228.669 471.066 228.771C469.91 228.884 469.043 229.083 468.465 229.366C467.898 229.638 467.615 230.103 467.615 230.76C467.615 231.383 467.858 231.854 468.346 232.171C468.833 232.477 469.558 232.63 470.522 232.63ZM484.34 236.2V218.146H489.627V224.368L488.539 223.688C488.664 222.838 488.891 222.056 489.219 221.342C489.548 220.628 489.973 220.01 490.494 219.489C491.016 218.956 491.633 218.543 492.347 218.248C493.073 217.953 493.9 217.806 494.829 217.806C495.555 217.806 496.121 217.863 496.529 217.976C496.949 218.078 497.209 218.157 497.311 218.214L496.444 222.94C496.342 222.883 496.116 222.793 495.764 222.668C495.413 222.543 494.96 222.481 494.404 222.481C493.498 222.481 492.738 222.634 492.126 222.94C491.514 223.246 491.021 223.654 490.647 224.164C490.285 224.663 490.024 225.218 489.865 225.83C489.707 226.442 489.627 227.06 489.627 227.683V236.2H484.34ZM508.742 236.608C506.759 236.608 505.019 236.211 503.523 235.418C502.027 234.613 500.865 233.497 500.038 232.069C499.222 230.641 498.814 228.992 498.814 227.122C498.814 225.229 499.222 223.592 500.038 222.209C500.865 220.815 502.027 219.733 503.523 218.962C505.019 218.191 506.759 217.806 508.742 217.806C510.227 217.806 511.541 218.027 512.686 218.469C513.831 218.9 514.788 219.472 515.559 220.186C516.33 220.9 516.913 221.682 517.31 222.532C517.707 223.382 517.905 224.226 517.905 225.065C517.905 225.076 517.905 225.099 517.905 225.133C517.905 225.156 517.905 225.178 517.905 225.201H512.686C512.686 225.133 512.68 225.071 512.669 225.014C512.669 224.946 512.658 224.878 512.635 224.81C512.544 224.334 512.346 223.886 512.04 223.467C511.734 223.048 511.303 222.708 510.748 222.447C510.204 222.175 509.524 222.039 508.708 222.039C507.835 222.039 507.053 222.232 506.362 222.617C505.682 223.002 505.144 223.575 504.747 224.334C504.35 225.082 504.152 226.011 504.152 227.122C504.152 228.21 504.35 229.151 504.747 229.944C505.144 230.726 505.682 231.327 506.362 231.746C507.053 232.165 507.835 232.375 508.708 232.375C509.603 232.375 510.334 232.239 510.901 231.967C511.468 231.684 511.893 231.31 512.176 230.845C512.459 230.369 512.629 229.848 512.686 229.281H517.905C517.905 230.12 517.707 230.975 517.31 231.848C516.925 232.709 516.347 233.497 515.576 234.211C514.817 234.925 513.865 235.503 512.72 235.945C511.575 236.387 510.249 236.608 508.742 236.608ZM523.219 228.754V225.269H535.187L534.677 226.153C534.677 226.062 534.677 225.977 534.677 225.898C534.677 225.807 534.677 225.722 534.677 225.643C534.677 224.997 534.524 224.379 534.218 223.79C533.912 223.189 533.436 222.702 532.79 222.328C532.155 221.943 531.339 221.75 530.342 221.75C529.344 221.75 528.483 221.965 527.758 222.396C527.044 222.815 526.494 223.422 526.109 224.215C525.735 225.008 525.548 225.966 525.548 227.088C525.548 228.244 525.729 229.236 526.092 230.063C526.466 230.879 527.015 231.508 527.741 231.95C528.477 232.392 529.39 232.613 530.478 232.613C531.18 232.613 531.787 232.551 532.297 232.426C532.807 232.29 533.22 232.12 533.538 231.916C533.866 231.712 534.116 231.485 534.286 231.236C534.456 230.987 534.558 230.743 534.592 230.505H539.794C539.726 231.264 539.465 232.012 539.012 232.749C538.558 233.474 537.929 234.132 537.125 234.721C536.32 235.299 535.34 235.758 534.184 236.098C533.039 236.438 531.73 236.608 530.257 236.608C528.262 236.608 526.522 236.211 525.038 235.418C523.553 234.613 522.403 233.508 521.587 232.103C520.771 230.686 520.363 229.054 520.363 227.207C520.363 225.337 520.776 223.699 521.604 222.294C522.442 220.877 523.604 219.778 525.089 218.996C526.585 218.203 528.313 217.806 530.274 217.806C532.28 217.806 534.014 218.208 535.476 219.013C536.938 219.806 538.065 220.923 538.859 222.362C539.652 223.79 540.049 225.456 540.049 227.36C540.049 227.643 540.043 227.915 540.032 228.176C540.02 228.437 540.003 228.629 539.981 228.754H523.219ZM548.799 209.629V236.2H543.597V209.629H548.799ZM566.672 236.2H561.521V211.125H569.715L578.113 234.296L577.229 234.517V211.125H582.363V236.2H574.118L565.72 213.097L566.672 212.876V236.2ZM595.55 236.591C593.601 236.591 591.884 236.189 590.399 235.384C588.915 234.579 587.753 233.474 586.914 232.069C586.087 230.652 585.673 229.02 585.673 227.173C585.673 225.337 586.087 223.716 586.914 222.311C587.753 220.894 588.915 219.795 590.399 219.013C591.884 218.22 593.601 217.823 595.55 217.823C597.5 217.823 599.217 218.22 600.701 219.013C602.186 219.795 603.342 220.894 604.169 222.311C605.008 223.716 605.427 225.337 605.427 227.173C605.427 229.02 605.008 230.652 604.169 232.069C603.342 233.474 602.186 234.579 600.701 235.384C599.217 236.189 597.5 236.591 595.55 236.591ZM595.55 232.409C596.468 232.409 597.267 232.194 597.947 231.763C598.627 231.332 599.154 230.726 599.528 229.944C599.902 229.151 600.089 228.227 600.089 227.173C600.089 226.119 599.902 225.207 599.528 224.436C599.154 223.654 598.627 223.053 597.947 222.634C597.267 222.215 596.468 222.005 595.55 222.005C594.644 222.005 593.845 222.215 593.153 222.634C592.473 223.053 591.946 223.654 591.572 224.436C591.198 225.207 591.011 226.119 591.011 227.173C591.011 228.227 591.198 229.151 591.572 229.944C591.946 230.726 592.473 231.332 593.153 231.763C593.845 232.194 594.644 232.409 595.55 232.409ZM616.267 236.608C614.76 236.608 613.371 236.251 612.102 235.537C610.833 234.812 609.813 233.741 609.042 232.324C608.271 230.907 607.886 229.162 607.886 227.088C607.886 225.105 608.277 223.422 609.059 222.039C609.852 220.656 610.884 219.608 612.153 218.894C613.434 218.169 614.805 217.806 616.267 217.806C617.695 217.806 618.998 218.169 620.177 218.894C621.367 219.619 622.319 220.611 623.033 221.869C623.747 223.116 624.104 224.555 624.104 226.187C624.104 226.244 624.104 226.3 624.104 226.357C624.104 226.402 624.104 226.453 624.104 226.51L621.826 226.544C621.826 226.51 621.826 226.476 621.826 226.442C621.826 226.397 621.826 226.357 621.826 226.323C621.826 225.473 621.622 224.742 621.214 224.13C620.806 223.518 620.279 223.048 619.633 222.719C618.987 222.379 618.313 222.209 617.61 222.209C616.443 222.209 615.434 222.6 614.584 223.382C613.734 224.153 613.309 225.388 613.309 227.088C613.309 228.788 613.734 230.04 614.584 230.845C615.445 231.638 616.454 232.035 617.61 232.035C618.335 232.035 619.021 231.865 619.667 231.525C620.313 231.174 620.834 230.681 621.231 230.046C621.628 229.411 621.826 228.663 621.826 227.802L624.104 227.921C624.104 229.542 623.753 231.009 623.05 232.324C622.359 233.627 621.418 234.67 620.228 235.452C619.049 236.223 617.729 236.608 616.267 236.608ZM621.826 236.2V209.629H627.113V236.2H621.826ZM633.154 228.754V225.269H645.122L644.612 226.153C644.612 226.062 644.612 225.977 644.612 225.898C644.612 225.807 644.612 225.722 644.612 225.643C644.612 224.997 644.459 224.379 644.153 223.79C643.847 223.189 643.371 222.702 642.725 222.328C642.091 221.943 641.275 221.75 640.277 221.75C639.28 221.75 638.419 221.965 637.693 222.396C636.979 222.815 636.43 223.422 636.044 224.215C635.67 225.008 635.483 225.966 635.483 227.088C635.483 228.244 635.665 229.236 636.027 230.063C636.401 230.879 636.951 231.508 637.676 231.95C638.413 232.392 639.325 232.613 640.413 232.613C641.116 232.613 641.722 232.551 642.232 232.426C642.742 232.29 643.156 232.12 643.473 231.916C643.802 231.712 644.051 231.485 644.221 231.236C644.391 230.987 644.493 230.743 644.527 230.505H649.729C649.661 231.264 649.401 232.012 648.947 232.749C648.494 233.474 647.865 234.132 647.06 234.721C646.256 235.299 645.275 235.758 644.119 236.098C642.975 236.438 641.666 236.608 640.192 236.608C638.198 236.608 636.458 236.211 634.973 235.418C633.489 234.613 632.338 233.508 631.522 232.103C630.706 230.686 630.298 229.054 630.298 227.207C630.298 225.337 630.712 223.699 631.539 222.294C632.378 220.877 633.54 219.778 635.024 218.996C636.52 218.203 638.249 217.806 640.209 217.806C642.215 217.806 643.949 218.208 645.411 219.013C646.873 219.806 648.001 220.923 648.794 222.362C649.588 223.79 649.984 225.456 649.984 227.36C649.984 227.643 649.979 227.915 649.967 228.176C649.956 228.437 649.939 228.629 649.916 228.754H633.154ZM434.009 248.125H442.934V273.2H437.936V251.236L438.038 251.304L433.142 273.2H426.24L421.259 251.253L421.361 251.202V273.2H416.346V248.125H425.271L429.844 270.701H429.402L434.009 248.125ZM456.33 273.591C454.38 273.591 452.663 273.189 451.179 272.384C449.694 271.579 448.532 270.474 447.694 269.069C446.866 267.652 446.453 266.02 446.453 264.173C446.453 262.337 446.866 260.716 447.694 259.311C448.532 257.894 449.694 256.795 451.179 256.013C452.663 255.22 454.38 254.823 456.33 254.823C458.279 254.823 459.996 255.22 461.481 256.013C462.965 256.795 464.121 257.894 464.949 259.311C465.787 260.716 466.207 262.337 466.207 264.173C466.207 266.02 465.787 267.652 464.949 269.069C464.121 270.474 462.965 271.579 461.481 272.384C459.996 273.189 458.279 273.591 456.33 273.591ZM456.33 269.409C457.248 269.409 458.047 269.194 458.727 268.763C459.407 268.332 459.934 267.726 460.308 266.944C460.682 266.151 460.869 265.227 460.869 264.173C460.869 263.119 460.682 262.207 460.308 261.436C459.934 260.654 459.407 260.053 458.727 259.634C458.047 259.215 457.248 259.005 456.33 259.005C455.423 259.005 454.624 259.215 453.933 259.634C453.253 260.053 452.726 260.654 452.352 261.436C451.978 262.207 451.791 263.119 451.791 264.173C451.791 265.227 451.978 266.151 452.352 266.944C452.726 267.726 453.253 268.332 453.933 268.763C454.624 269.194 455.423 269.409 456.33 269.409ZM482.214 273.2V265.533C482.214 265.102 482.214 264.711 482.214 264.36C482.214 264.009 482.214 263.691 482.214 263.408C482.214 262.66 482.118 261.98 481.925 261.368C481.733 260.745 481.387 260.246 480.888 259.872C480.39 259.498 479.67 259.311 478.729 259.311C477.913 259.311 477.205 259.498 476.604 259.872C476.015 260.246 475.562 260.767 475.244 261.436C474.927 262.105 474.768 262.875 474.768 263.748L473.306 262.694C473.306 261.13 473.646 259.759 474.326 258.58C475.006 257.401 475.924 256.478 477.08 255.809C478.248 255.14 479.54 254.806 480.956 254.806C482.441 254.806 483.659 255.106 484.611 255.707C485.575 256.296 486.289 257.124 486.753 258.189C487.229 259.243 487.467 260.478 487.467 261.895C487.467 262.473 487.467 263.119 487.467 263.833C487.467 264.547 487.467 265.278 487.467 266.026V273.2H482.214ZM469.498 273.2V255.146H474.768V273.2H469.498ZM503.873 271.058C504.984 271.171 505.953 271.387 506.78 271.704C507.619 272.01 508.271 272.469 508.735 273.081C509.2 273.682 509.432 274.486 509.432 275.495C509.432 276.662 509.047 277.654 508.276 278.47C507.517 279.297 506.401 279.926 504.927 280.357C503.454 280.788 501.669 281.003 499.572 281.003C496.478 281.003 494.081 280.555 492.381 279.66C490.693 278.776 489.848 277.592 489.848 276.107C489.848 275.688 489.894 275.308 489.984 274.968C490.086 274.639 490.211 274.356 490.358 274.118L495.152 274.815C495.096 274.894 495.033 275.013 494.965 275.172C494.909 275.342 494.88 275.552 494.88 275.801C494.88 276.402 495.328 276.849 496.223 277.144C497.13 277.439 498.297 277.586 499.725 277.586C500.734 277.586 501.595 277.512 502.309 277.365C503.035 277.229 503.584 277.025 503.958 276.753C504.344 276.481 504.536 276.169 504.536 275.818C504.536 275.308 504.287 274.974 503.788 274.815C503.301 274.656 502.734 274.543 502.088 274.475L495.254 273.778C493.996 273.653 492.954 273.291 492.126 272.69C491.299 272.089 490.885 271.279 490.885 270.259C490.885 269.624 491.061 269.046 491.412 268.525C491.764 267.992 492.166 267.556 492.619 267.216C493.073 266.865 493.452 266.644 493.758 266.553L496.444 267.913C496.229 267.947 495.974 268.083 495.679 268.321C495.396 268.559 495.254 268.837 495.254 269.154C495.254 269.471 495.413 269.743 495.73 269.97C496.059 270.197 496.654 270.35 497.515 270.429L503.873 271.058ZM505.658 255.146H510.299L508.412 262.082C508.061 263.397 507.54 264.57 506.848 265.601C506.157 266.621 505.233 267.426 504.077 268.015C502.933 268.604 501.488 268.899 499.742 268.899C497.906 268.899 496.314 268.616 494.965 268.049C493.628 267.482 492.597 266.683 491.871 265.652C491.146 264.609 490.783 263.38 490.783 261.963C490.783 260.546 491.152 259.3 491.888 258.223C492.636 257.146 493.651 256.308 494.931 255.707C496.223 255.106 497.685 254.806 499.317 254.806C500.553 254.806 501.68 255.01 502.7 255.418C503.732 255.815 504.559 256.342 505.182 256.999C505.817 257.656 506.146 258.382 506.168 259.175L505.199 259.43L505.658 255.146ZM499.708 265.04C500.456 265.04 501.114 264.921 501.68 264.683C502.247 264.434 502.689 264.077 503.006 263.612C503.324 263.136 503.482 262.564 503.482 261.895C503.482 261.238 503.324 260.677 503.006 260.212C502.689 259.747 502.247 259.39 501.68 259.141C501.114 258.892 500.456 258.767 499.708 258.767C498.994 258.767 498.348 258.897 497.77 259.158C497.204 259.407 496.756 259.77 496.427 260.246C496.099 260.711 495.934 261.277 495.934 261.946C495.934 262.603 496.093 263.164 496.41 263.629C496.728 264.082 497.17 264.434 497.736 264.683C498.303 264.921 498.96 265.04 499.708 265.04ZM521.275 273.591C519.325 273.591 517.608 273.189 516.124 272.384C514.639 271.579 513.477 270.474 512.639 269.069C511.811 267.652 511.398 266.02 511.398 264.173C511.398 262.337 511.811 260.716 512.639 259.311C513.477 257.894 514.639 256.795 516.124 256.013C517.608 255.22 519.325 254.823 521.275 254.823C523.224 254.823 524.941 255.22 526.426 256.013C527.91 256.795 529.066 257.894 529.894 259.311C530.732 260.716 531.152 262.337 531.152 264.173C531.152 266.02 530.732 267.652 529.894 269.069C529.066 270.474 527.91 271.579 526.426 272.384C524.941 273.189 523.224 273.591 521.275 273.591ZM521.275 269.409C522.193 269.409 522.992 269.194 523.672 268.763C524.352 268.332 524.879 267.726 525.253 266.944C525.627 266.151 525.814 265.227 525.814 264.173C525.814 263.119 525.627 262.207 525.253 261.436C524.879 260.654 524.352 260.053 523.672 259.634C522.992 259.215 522.193 259.005 521.275 259.005C520.368 259.005 519.569 259.215 518.878 259.634C518.198 260.053 517.671 260.654 517.297 261.436C516.923 262.207 516.736 263.119 516.736 264.173C516.736 265.227 516.923 266.151 517.297 266.944C517.671 267.726 518.198 268.332 518.878 268.763C519.569 269.194 520.368 269.409 521.275 269.409ZM545.885 252.205L548.265 249.689V260.076L547.075 258.58H556.323V262.66H547.075L548.265 261.164V271.636L545.885 269.12H558.21V273.2H542.961V248.125H558.21V252.205H545.885ZM567.674 263.255L567.623 265.618L560.126 255.146H565.855L571.244 263.17L568.082 263.136L573.437 255.146H579.064L571.873 264.955L571.618 262.558L579.132 273.2H573.369L567.861 265.142L571.431 264.972L565.447 273.2H559.82L567.674 263.255ZM581.659 280.629V255.146H586.946V280.629H581.659ZM592.522 273.608C591.094 273.608 589.785 273.228 588.595 272.469C587.405 271.698 586.453 270.667 585.739 269.375C585.025 268.072 584.668 266.61 584.668 264.989C584.668 264.944 584.668 264.904 584.668 264.87C584.668 264.825 584.668 264.774 584.668 264.717L586.946 264.666C586.946 264.7 586.946 264.734 586.946 264.768C586.946 264.802 586.946 264.836 586.946 264.87C586.946 265.709 587.15 266.445 587.558 267.08C587.966 267.703 588.493 268.185 589.139 268.525C589.785 268.865 590.459 269.035 591.162 269.035C592.318 269.035 593.321 268.638 594.171 267.845C595.032 267.04 595.463 265.788 595.463 264.088C595.463 262.388 595.038 261.153 594.188 260.382C593.338 259.6 592.329 259.209 591.162 259.209C590.459 259.209 589.785 259.379 589.139 259.719C588.493 260.048 587.966 260.518 587.558 261.13C587.15 261.742 586.946 262.473 586.946 263.323L584.668 263.187C584.668 261.555 585.025 260.116 585.739 258.869C586.453 257.611 587.405 256.619 588.595 255.894C589.785 255.169 591.094 254.806 592.522 254.806C593.984 254.806 595.349 255.169 596.619 255.894C597.888 256.608 598.914 257.656 599.696 259.039C600.489 260.422 600.886 262.105 600.886 264.088C600.886 266.162 600.5 267.907 599.73 269.324C598.959 270.741 597.939 271.812 596.67 272.537C595.4 273.251 594.018 273.608 592.522 273.608ZM604.17 273.2V255.146H609.457V261.368L608.369 260.688C608.494 259.838 608.721 259.056 609.049 258.342C609.378 257.628 609.803 257.01 610.324 256.489C610.846 255.956 611.463 255.543 612.177 255.248C612.903 254.953 613.73 254.806 614.659 254.806C615.385 254.806 615.951 254.863 616.359 254.976C616.779 255.078 617.039 255.157 617.141 255.214L616.274 259.94C616.172 259.883 615.946 259.793 615.594 259.668C615.243 259.543 614.79 259.481 614.234 259.481C613.328 259.481 612.568 259.634 611.956 259.94C611.344 260.246 610.851 260.654 610.477 261.164C610.115 261.663 609.854 262.218 609.695 262.83C609.537 263.442 609.457 264.06 609.457 264.683V273.2H604.17ZM621.5 265.754V262.269H633.468L632.958 263.153C632.958 263.062 632.958 262.977 632.958 262.898C632.958 262.807 632.958 262.722 632.958 262.643C632.958 261.997 632.805 261.379 632.499 260.79C632.193 260.189 631.717 259.702 631.071 259.328C630.436 258.943 629.62 258.75 628.623 258.75C627.626 258.75 626.764 258.965 626.039 259.396C625.325 259.815 624.775 260.422 624.39 261.215C624.016 262.008 623.829 262.966 623.829 264.088C623.829 265.244 624.01 266.236 624.373 267.063C624.747 267.879 625.297 268.508 626.022 268.95C626.759 269.392 627.671 269.613 628.759 269.613C629.462 269.613 630.068 269.551 630.578 269.426C631.088 269.29 631.502 269.12 631.819 268.916C632.148 268.712 632.397 268.485 632.567 268.236C632.737 267.987 632.839 267.743 632.873 267.505H638.075C638.007 268.264 637.746 269.012 637.293 269.749C636.84 270.474 636.211 271.132 635.406 271.721C634.601 272.299 633.621 272.758 632.465 273.098C631.32 273.438 630.011 273.608 628.538 273.608C626.543 273.608 624.804 273.211 623.319 272.418C621.834 271.613 620.684 270.508 619.868 269.103C619.052 267.686 618.644 266.054 618.644 264.207C618.644 262.337 619.058 260.699 619.885 259.294C620.724 257.877 621.885 256.778 623.37 255.996C624.866 255.203 626.594 254.806 628.555 254.806C630.561 254.806 632.295 255.208 633.757 256.013C635.219 256.806 636.347 257.923 637.14 259.362C637.933 260.79 638.33 262.456 638.33 264.36C638.33 264.643 638.324 264.915 638.313 265.176C638.302 265.437 638.285 265.629 638.262 265.754H621.5ZM649.137 273.608C648.061 273.608 647.024 273.483 646.026 273.234C645.029 272.985 644.134 272.616 643.34 272.129C642.558 271.642 641.935 271.035 641.47 270.31C641.017 269.573 640.79 268.718 640.79 267.743C640.79 267.698 640.79 267.647 640.79 267.59C640.79 267.522 640.79 267.471 640.79 267.437H646.026C646.026 267.471 646.026 267.511 646.026 267.556C646.026 267.59 646.026 267.63 646.026 267.675C646.026 268.332 646.315 268.814 646.893 269.12C647.483 269.426 648.276 269.579 649.273 269.579C649.795 269.579 650.293 269.528 650.769 269.426C651.257 269.313 651.653 269.137 651.959 268.899C652.277 268.65 652.435 268.338 652.435 267.964C652.435 267.363 652.101 266.938 651.432 266.689C650.775 266.44 649.715 266.19 648.253 265.941C647.426 265.805 646.587 265.612 645.737 265.363C644.887 265.114 644.105 264.785 643.391 264.377C642.677 263.958 642.105 263.431 641.674 262.796C641.244 262.15 641.028 261.368 641.028 260.45C641.028 259.226 641.397 258.195 642.133 257.356C642.881 256.517 643.873 255.883 645.108 255.452C646.344 255.021 647.704 254.806 649.188 254.806C650.605 254.806 651.925 255.044 653.149 255.52C654.373 255.985 655.365 256.659 656.124 257.543C656.884 258.416 657.263 259.47 657.263 260.705C657.263 260.728 657.263 260.762 657.263 260.807C657.263 260.852 657.263 260.898 657.263 260.943H652.078C652.078 260.898 652.078 260.858 652.078 260.824C652.078 260.79 652.078 260.762 652.078 260.739C652.078 260.286 651.931 259.917 651.636 259.634C651.353 259.351 650.99 259.141 650.548 259.005C650.106 258.858 649.647 258.784 649.171 258.784C648.741 258.784 648.293 258.835 647.828 258.937C647.375 259.028 646.99 259.186 646.672 259.413C646.355 259.628 646.196 259.934 646.196 260.331C646.196 260.716 646.366 261.034 646.706 261.283C647.046 261.521 647.522 261.719 648.134 261.878C648.746 262.025 649.455 262.167 650.259 262.303C651.019 262.428 651.818 262.603 652.656 262.83C653.506 263.045 654.3 263.357 655.036 263.765C655.784 264.162 656.385 264.689 656.838 265.346C657.303 265.992 657.535 266.814 657.535 267.811C657.535 268.842 657.297 269.726 656.821 270.463C656.345 271.2 655.699 271.8 654.883 272.265C654.079 272.718 653.178 273.053 652.18 273.268C651.194 273.495 650.18 273.608 649.137 273.608ZM668.329 273.608C667.252 273.608 666.215 273.483 665.218 273.234C664.22 272.985 663.325 272.616 662.532 272.129C661.75 271.642 661.126 271.035 660.662 270.31C660.208 269.573 659.982 268.718 659.982 267.743C659.982 267.698 659.982 267.647 659.982 267.59C659.982 267.522 659.982 267.471 659.982 267.437H665.218C665.218 267.471 665.218 267.511 665.218 267.556C665.218 267.59 665.218 267.63 665.218 267.675C665.218 268.332 665.507 268.814 666.085 269.12C666.674 269.426 667.467 269.579 668.465 269.579C668.986 269.579 669.485 269.528 669.961 269.426C670.448 269.313 670.845 269.137 671.151 268.899C671.468 268.65 671.627 268.338 671.627 267.964C671.627 267.363 671.292 266.938 670.624 266.689C669.966 266.44 668.907 266.19 667.445 265.941C666.617 265.805 665.779 265.612 664.929 265.363C664.079 265.114 663.297 264.785 662.583 264.377C661.869 263.958 661.296 263.431 660.866 262.796C660.435 262.15 660.22 261.368 660.22 260.45C660.22 259.226 660.588 258.195 661.325 257.356C662.073 256.517 663.064 255.883 664.3 255.452C665.535 255.021 666.895 254.806 668.38 254.806C669.796 254.806 671.117 255.044 672.341 255.52C673.565 255.985 674.556 256.659 675.316 257.543C676.075 258.416 676.455 259.47 676.455 260.705C676.455 260.728 676.455 260.762 676.455 260.807C676.455 260.852 676.455 260.898 676.455 260.943H671.27C671.27 260.898 671.27 260.858 671.27 260.824C671.27 260.79 671.27 260.762 671.27 260.739C671.27 260.286 671.122 259.917 670.828 259.634C670.544 259.351 670.182 259.141 669.74 259.005C669.298 258.858 668.839 258.784 668.363 258.784C667.932 258.784 667.484 258.835 667.02 258.937C666.566 259.028 666.181 259.186 665.864 259.413C665.546 259.628 665.388 259.934 665.388 260.331C665.388 260.716 665.558 261.034 665.898 261.283C666.238 261.521 666.714 261.719 667.326 261.878C667.938 262.025 668.646 262.167 669.451 262.303C670.21 262.428 671.009 262.603 671.848 262.83C672.698 263.045 673.491 263.357 674.228 263.765C674.976 264.162 675.576 264.689 676.03 265.346C676.494 265.992 676.727 266.814 676.727 267.811C676.727 268.842 676.489 269.726 676.013 270.463C675.537 271.2 674.891 271.8 674.075 272.265C673.27 272.718 672.369 273.053 671.372 273.268C670.386 273.495 669.371 273.608 668.329 273.608Z" fill="#12924F"/>
<path d="M569.582 135.519L567.113 136.567L566.796 136.874L542.672 131.541L542.783 130.615H542.813C542.798 130.42 542.932 129.976 543.077 129.692L569.582 135.519Z" fill="url(#paint0_linear_16_661)"/>
<path opacity="0.75" d="M543.342 130.733V146.241L542.779 145.877H542.775L542.036 145.395V130.825L542.614 130.619H542.81L543.342 130.733Z" fill="url(#paint1_linear_16_661)"/>
<path d="M589.297 121.929L585.063 128.938L569.582 135.518L568.059 136.165L542.813 130.618C542.798 130.423 542.932 129.979 543.077 129.696C543.108 129.635 543.139 129.585 543.169 129.543L552.797 115.54C552.82 115.505 552.831 115.49 552.881 115.498L589.235 121.753L589.297 121.929Z" fill="url(#paint2_linear_16_661)"/>
<path d="M550.791 186.825L577.686 169.817C577.786 169.756 577.916 169.783 577.977 169.882C578.038 169.982 578.012 170.112 577.912 170.173L550.929 187.234C550.894 187.257 550.856 187.269 550.818 187.269L550.791 186.825Z" fill="url(#paint3_linear_16_661)"/>
<path d="M550.818 187.269C550.795 187.269 550.768 187.265 550.745 187.258L514.077 173.592C513.966 173.55 513.912 173.431 513.954 173.32C513.996 173.209 514.115 173.155 514.226 173.197L550.798 186.825L550.818 187.269Z" fill="url(#paint4_linear_16_661)"/>
<path d="M589.297 121.929L585.063 128.938L568.055 136.169L567.11 136.571L551.824 150.865C551.53 151.159 551.331 151.581 551.296 151.814C551.281 151.894 551.212 151.86 551.147 151.856C551.078 151.852 550.982 151.879 550.975 151.795C550.967 151.489 550.933 151.148 550.439 150.842L542.779 145.881L537.194 142.259L521.461 138.225L508.293 134.848L499.951 121.891L500.078 121.745L500.085 121.734L531.398 113.595C531.444 113.58 531.452 113.588 531.471 113.615L542.151 129.612L542.362 129.926C542.591 130.263 542.614 130.469 542.614 130.619H542.81C542.81 130.607 542.81 130.596 542.81 130.584C542.81 130.569 542.81 130.55 542.813 130.53C542.813 130.519 542.817 130.508 542.817 130.492C542.821 130.477 542.821 130.462 542.825 130.446C542.829 130.431 542.829 130.416 542.833 130.397C542.844 130.343 542.859 130.282 542.875 130.22C542.878 130.201 542.886 130.182 542.89 130.167C542.909 130.106 542.928 130.041 542.951 129.979C542.963 129.956 542.97 129.929 542.982 129.907C543.012 129.83 543.043 129.761 543.078 129.7C543.108 129.639 543.139 129.589 543.169 129.547L552.797 115.544C552.82 115.509 552.831 115.494 552.881 115.502L589.235 121.757L589.297 121.929Z" fill="#E8B67F"/>
<path d="M542.779 145.877H542.775L537.194 142.259L521.461 138.225L542.614 130.619L542.672 130.508V130.619L542.779 145.877Z" fill="url(#paint5_linear_16_661)"/>
<path d="M542.614 130.618L521.461 138.221L519.555 137.731L508.293 134.841L499.951 121.883L500.085 121.726L531.398 113.588C531.444 113.572 531.452 113.58 531.471 113.607L542.151 129.604L542.362 129.918C542.591 130.262 542.614 130.469 542.614 130.618Z" fill="url(#paint6_linear_16_661)"/>
<path d="M542.689 131.426L522.688 138.615L519.568 137.815L542.165 129.692L542.375 130.006C542.605 130.343 542.628 130.55 542.628 130.699H542.685L542.689 131.426Z" fill="url(#paint7_linear_16_661)"/>
<path d="M508.58 134.917L508.296 134.845L499.955 121.887L500.081 121.741L508.58 134.917Z" fill="#D2A679"/>
<path d="M568.055 136.169L567.11 136.571L551.824 150.865C551.53 151.159 551.331 151.58 551.296 151.814C551.281 151.894 551.212 151.86 551.147 151.856C551.078 151.852 550.982 151.879 550.975 151.795C550.967 151.489 550.933 151.148 550.439 150.842L542.779 145.877L542.676 130.622V130.511L542.817 130.622L568.055 136.169Z" fill="url(#paint8_linear_16_661)"/>
<path fill-rule="evenodd" clip-rule="evenodd" d="M526.738 93.4742L545.08 82.3129C545.422 82.104 545.805 82 546.187 82C546.188 82 546.189 82 546.189 82V131.344C545.806 131.345 545.422 131.241 545.079 131.031L526.737 119.861C526.051 119.443 525.629 118.672 525.629 117.838V95.4967C525.629 94.6623 526.051 93.8911 526.738 93.4742ZM566.75 117.848C566.75 117.845 566.75 117.841 566.75 117.838V95.4976C566.75 95.494 566.75 95.4905 566.75 95.4869V117.848Z" fill="#12924F"/>
<path fill-rule="evenodd" clip-rule="evenodd" d="M565.641 93.4742L547.299 82.3129C546.957 82.104 546.574 82 546.192 82C546.191 82 546.19 82 546.189 82V131.344C546.573 131.345 546.957 131.241 547.3 131.031L565.642 119.861C566.327 119.443 566.75 118.672 566.75 117.838V95.4967C566.75 94.6623 566.327 93.8911 565.641 93.4742ZM525.629 117.853C525.629 117.848 525.629 117.843 525.629 117.838V95.4976C525.629 95.4926 525.629 95.4875 525.629 95.4825V117.853Z" fill="#10AA50"/>
<path d="M555.438 104.745C553.262 94.7178 548.559 92.0104 547.371 90.1163C546.881 89.2821 546.448 88.4158 546.076 87.5232C546.004 88.4116 545.882 88.9705 545.12 89.6377C543.59 90.9763 537.099 96.1676 536.452 107.532C535.849 118.128 544.087 124.741 545.177 125.427C546.016 125.849 547.046 125.453 547.551 125.077C551.576 122.368 557.109 115.1 555.443 104.745" fill="#10AA50"/>
<path d="M547.585 125.058C546.458 124.524 546.153 122.072 546.124 119.79C546.438 116.029 546.555 112.254 546.472 108.481C546.431 106.501 546.669 90.1484 546.176 87.7495C546.521 88.5636 546.92 89.3539 547.371 90.1149C548.559 92.0105 553.264 94.718 555.438 104.745C557.109 115.082 551.606 122.331 547.585 125.058Z" fill="#12924F"/>
<path d="M550.668 187.02L513.969 173.327C513.763 173.239 513.732 173.044 513.721 172.803C513.721 172.803 512.143 141.528 512.14 141.525C512.136 141.444 512.235 141.394 512.228 141.345C512.201 141.226 511.975 140.778 511.902 140.732L497 132.265L497.126 131.978L537.194 142.259L550.435 150.838C550.929 151.144 550.967 151.485 550.971 151.791C550.975 151.875 551.074 151.849 551.143 151.852C551.212 151.856 551.277 151.891 551.292 151.81C551.327 151.577 551.526 151.156 551.821 150.865L567.106 136.571L594.824 124.789L594.993 125.022L580.029 138.171C579.738 138.462 579.604 138.818 579.661 138.964L578.13 169.614C578.107 169.809 578.015 169.867 577.82 170.001L550.994 186.982C550.887 187.051 550.772 187.07 550.668 187.02Z" fill="#BF9064"/>
<path d="M551.143 151.852L550.879 187.035C550.806 187.055 550.733 187.051 550.664 187.02L513.966 173.331C513.759 173.243 513.728 173.044 513.717 172.807C513.717 172.807 512.136 141.532 512.136 141.528V141.521C512.136 141.513 512.136 141.505 512.14 141.498C512.14 141.49 512.143 141.486 512.147 141.482C512.151 141.475 512.155 141.471 512.159 141.463C512.163 141.456 512.166 141.452 512.17 141.444C512.186 141.421 512.209 141.398 512.216 141.379C512.22 141.375 512.22 141.371 512.22 141.368C512.22 141.368 512.22 141.368 512.22 141.364L550.975 151.807C550.99 151.875 551.082 151.849 551.143 151.852Z" fill="#BD8F63"/>
<path opacity="0.54" d="M550.883 186.932V187.032C550.81 187.051 550.737 187.047 550.668 187.016L513.969 173.328C513.824 173.266 513.767 173.148 513.74 173.002L550.883 186.932Z" fill="url(#paint9_linear_16_661)"/>
<path d="M534.288 165.591L548.498 170.238L548.463 184.096L534.518 178.974L534.288 165.591ZM541.408 174.901L541.443 181.32L548.325 183.849L548.326 177.305L541.408 174.901ZM543.442 176.975L544.833 179.188L546.195 177.995L546.432 178.265L545.026 179.497L546.435 181.739L546.231 181.867L544.843 179.657L543.487 180.846L543.25 180.575L544.649 179.349L543.238 177.103L543.442 176.975ZM547.537 179.468V180.099L547.901 180.218V180.93L547.537 180.784V181.359L546.741 180.149L547.537 179.468ZM546.312 178.698L546.592 178.786V181.309L546.312 181.209V178.698ZM534.568 172.524L534.671 178.844L541.248 181.248L541.209 174.843L534.568 172.524ZM544.85 180.057L545.569 181.217L544.134 180.696L544.85 180.057ZM545.96 178.993V180.639L545.213 179.586L545.96 178.993ZM543.112 177.527L543.388 177.619V180.137L543.112 180.042V177.527ZM543.732 178.204L544.444 179.303L543.732 179.85V178.204ZM537.783 175.153L538.055 175.241L538.056 175.403C538.865 175.729 539.664 176.54 540.05 177.802C539.797 177.377 539.575 177.297 539.181 177.431C539.035 177.129 538.606 176.968 538.35 177.129C538.28 176.995 538.177 176.896 538.064 176.831L538.078 179.234C538.078 179.456 537.925 179.655 537.546 179.579C537.201 179.494 537.06 179.23 537.098 178.778L537.29 178.809C537.29 179.111 537.312 179.284 537.542 179.337C537.737 179.383 537.825 179.311 537.825 179.131L537.8 176.748C537.691 176.74 537.591 176.767 537.519 176.83C537.431 176.608 537.014 176.309 536.7 176.531C536.478 176.179 536.061 176.045 535.827 176.302C536.125 175.4 536.935 175.084 537.785 175.312L537.783 175.153ZM542.14 177.5L542.917 178.725L542.147 179.364L542.163 178.763L541.787 178.675V177.978L542.14 178.109V177.5ZM544.111 177.764L545.566 178.292L544.838 178.932L544.111 177.764ZM541.397 168.118L541.412 174.663L548.329 177.075V170.388L541.397 168.118ZM542.687 173.771L546.821 175.184V176.007L542.687 174.583V173.771ZM539.112 175.329L539.127 175.333C539.154 175.36 539.154 175.647 539.066 175.712C539.024 175.731 538.959 175.735 538.905 175.693C538.851 175.651 538.821 175.59 538.844 175.498C538.867 175.406 539.096 175.306 539.127 175.333L539.112 175.329ZM539.495 174.674L539.51 174.679C539.54 174.705 539.54 174.993 539.449 175.058C539.406 175.077 539.341 175.081 539.288 175.039C539.234 174.996 539.204 174.935 539.226 174.843C539.249 174.751 539.479 174.652 539.51 174.679L539.495 174.674ZM538.423 174.648L538.438 174.652C538.469 174.679 538.469 174.966 538.377 175.031C538.335 175.05 538.269 175.054 538.216 175.012C538.162 174.97 538.132 174.908 538.155 174.817C538.178 174.725 538.407 174.625 538.438 174.652L538.423 174.648ZM537.34 174.491L537.355 174.495C537.385 174.522 537.385 174.809 537.293 174.874C537.251 174.893 537.186 174.897 537.133 174.855C537.079 174.813 537.048 174.751 537.071 174.66C537.094 174.568 537.324 174.468 537.355 174.495L537.34 174.491ZM545.88 170.192L546.882 172.171L546.197 171.938V174.805L545.512 174.568L545.516 171.723L544.834 171.501L545.88 170.192ZM534.438 165.836L534.556 172.294L541.213 174.583L541.156 168.041L534.438 165.836ZM543.617 169.438L544.62 171.417L543.935 171.184V174.051L543.25 173.814L543.257 170.969L542.572 170.747L543.617 169.438ZM535.927 167.134L536.47 167.314L536.723 168.229L536.44 168.209L537.247 170.162L536.83 168.554L537.068 168.55L536.826 167.428L539.632 168.355V169.898C539.632 170.483 538.997 171.222 538.101 170.855L538.105 172.405L539.391 173.232L536.279 172.152L537.531 172.213L537.508 170.678C536.62 170.414 535.977 169.346 535.977 168.696L535.927 167.134Z" fill="#322214"/>
<path d="M551.143 151.852C550.99 151.856 550.875 152.059 550.871 152.243L550.837 152.258L512.136 141.524C512.132 141.452 512.216 141.406 512.224 141.36C512.228 141.356 512.228 141.352 512.224 141.348C512.197 141.23 511.971 140.782 511.899 140.736L497 132.264L497.126 131.977L537.19 142.255H537.194L550.435 150.834C550.929 151.144 550.967 151.481 550.971 151.787C550.971 151.791 550.971 151.799 550.975 151.802C550.99 151.875 551.082 151.848 551.143 151.852Z" fill="url(#paint10_linear_16_661)"/>
<path d="M580.033 138.167C579.742 138.458 579.608 138.814 579.665 138.959L551.48 152.296L551.422 152.25C551.418 152.028 551.277 151.879 551.17 151.856C551.227 151.864 551.281 151.883 551.296 151.81C551.304 151.764 551.315 151.71 551.334 151.653C551.35 151.603 551.372 151.55 551.399 151.492C551.48 151.309 551.602 151.109 551.759 150.933C551.782 150.91 551.805 150.884 551.828 150.861L567.113 136.567L594.832 124.784L595 125.018L580.033 138.167Z" fill="#CD9C6B"/>
<path d="M533.749 155.359C533.791 155.37 533.806 155.374 533.806 155.34L533.66 147.554C533.649 147.289 533.584 146.769 533.266 146.558L519.152 137.984L512.538 136.276L526.881 144.847C527.241 145.085 527.272 145.529 527.287 145.858L527.494 153.43C527.494 153.468 527.501 153.475 527.528 153.487L533.749 155.359Z" fill="url(#paint11_linear_16_661)"/>
<path d="M551.143 151.853C550.986 151.856 550.871 152.071 550.871 152.258C550.867 152.274 550.841 152.27 550.837 152.258C550.806 151.841 550.634 151.374 550.408 151.21L537.06 142.604L537.19 142.256H537.194L550.435 150.834C550.929 151.144 550.967 151.481 550.971 151.788C550.971 151.791 550.971 151.799 550.975 151.803C550.99 151.876 551.082 151.849 551.143 151.853Z" fill="#D4A271"/>
<path d="M537.19 142.26L537.06 142.604L497 132.265L497.126 131.981L537.19 142.26Z" fill="#DEB37E"/>
<path d="M579.669 138.96L578.138 169.611C578.115 169.806 578.023 169.863 577.828 169.997L551.001 186.978C550.963 187.005 550.921 187.02 550.883 187.032L551.147 151.849C551.216 151.853 551.281 151.887 551.296 151.807C551.296 151.795 551.3 151.788 551.3 151.776L579.661 138.926C579.661 138.945 579.665 138.952 579.669 138.96Z" fill="#DBAD77"/>
<path opacity="0.54" d="M578.138 169.599V169.614C578.115 169.809 578.023 169.867 577.828 170.001L551.001 186.982C550.963 187.009 550.921 187.024 550.883 187.035V186.936L578.138 169.599Z" fill="url(#paint12_linear_16_661)"/>
<path d="M577.636 156.262L577.024 168.741L568.105 174.296L568.564 161.307L577.636 156.262ZM572.867 165.296L568.434 167.903L568.223 174.047L572.637 171.302L572.867 165.296ZM570.75 167.933L570.742 168.14C571.271 167.876 571.772 168.06 571.983 168.936C571.837 168.734 571.573 168.814 571.397 169.227C571.316 169.055 570.907 169.197 570.846 169.557C570.813 169.498 570.754 169.477 570.687 169.484L570.589 171.853C570.582 172.056 570.57 172.274 570.314 172.431C570.195 172.485 569.881 172.527 569.923 172.087L570.072 171.972C570.061 172.251 570.134 172.336 570.287 172.244C570.47 172.133 570.436 171.957 570.444 171.792L570.526 169.548C570.419 169.618 570.321 169.742 570.294 169.89C570.248 169.752 569.804 169.836 569.751 170.23C569.625 170.062 569.28 170.226 569.15 170.651C569.39 169.548 569.984 168.632 570.575 168.237L570.582 168.056L570.75 167.933ZM577.219 162.724L572.993 165.223L572.76 171.245L576.94 168.615L577.219 162.724ZM575.914 164.752L576.036 164.867L575.115 166.957L575.876 168.006L575.753 168.267L574.995 167.229L574.084 169.296L573.958 169.181L574.886 167.079L574.099 166.004L574.237 165.744L575.006 166.806L575.914 164.752ZM573.341 167.153L573.82 167.734L573.311 168.829V168.347L573.096 168.477L573.108 167.853L573.322 167.727L573.341 167.153ZM574.168 166.395L574.069 168.703L573.897 168.818L573.992 166.517L574.168 166.395ZM574.976 167.6L575.386 168.14L574.505 168.676L574.976 167.6ZM570.287 167.769C570.306 167.769 570.294 168.033 570.229 168.163C570.206 168.209 570.164 168.259 570.13 168.263C570.095 168.267 570.08 168.228 570.099 168.129C570.118 168.029 570.268 167.769 570.287 167.769ZM574.36 166.709L574.765 167.21L574.291 168.148L574.36 166.709ZM571.45 167.29C571.466 167.294 571.454 167.558 571.393 167.685C571.37 167.731 571.328 167.78 571.294 167.784C571.259 167.788 571.244 167.75 571.263 167.65C571.282 167.551 571.431 167.29 571.45 167.29ZM573.15 158.93L568.671 161.441L568.438 167.708L572.882 165.089L573.15 158.93ZM576.101 165.219L575.994 167.524L575.841 167.623L575.945 165.323L576.101 165.219ZM571.029 167.118C571.049 167.118 571.037 167.382 570.972 167.512C570.949 167.558 570.907 167.608 570.872 167.612C570.838 167.616 570.823 167.577 570.842 167.478C570.861 167.378 571.01 167.118 571.029 167.118ZM575.707 165.889L575.646 167.359L575.248 166.885L575.707 165.889ZM576.657 165.189L576.634 165.755L576.856 165.633L576.829 166.261L576.614 166.387L576.607 166.904L576.144 166.349L576.657 165.189ZM571.745 166.36C571.764 166.36 571.753 166.624 571.688 166.754C571.665 166.8 571.623 166.85 571.588 166.854C571.554 166.858 571.538 166.82 571.558 166.72C571.577 166.62 571.726 166.36 571.745 166.36ZM575.489 165.472L575.014 166.559L574.605 166.004L575.489 165.472ZM572.109 160.262L572.051 161.839C572.028 162.375 571.6 163.348 570.96 163.753L570.892 165.242L571.745 165.059L569.667 166.261L570.532 165.438L570.578 163.975C570.023 164.293 569.579 163.704 569.605 163.106L569.655 161.659L570.03 161.457L570.153 162.153L569.95 162.318L570.398 163.616L570.226 162.433L570.379 162.257L570.26 161.326L572.109 160.262ZM577.545 156.488L573.257 158.884L572.989 165.043L577.238 162.502L577.545 156.488ZM576.427 161.797L576.373 162.528L573.862 164.014L573.897 163.275L576.427 161.797ZM574.651 158.639L575.206 159.811L574.788 160.044L574.662 162.674L574.264 162.904L574.341 160.274L573.939 160.515L574.651 158.639ZM576.044 157.866L576.584 159.018L576.14 159.267L576.048 161.878L575.623 162.115L575.757 159.485L575.34 159.722L576.044 157.866Z" fill="#322214"/>
<path d="M567.335 136.87L552.18 150.957C551.752 151.366 551.468 151.979 551.48 152.296C551.472 152.312 551.434 152.323 551.419 152.296C551.438 152.051 551.281 151.883 551.166 151.856C551.223 151.864 551.277 151.883 551.292 151.81C551.3 151.764 551.311 151.711 551.331 151.653C551.346 151.604 551.369 151.55 551.396 151.493C551.487 151.286 551.637 151.048 551.82 150.865L567.106 136.571L567.335 136.87Z" fill="#D7AA77"/>
<path d="M563.994 153.958C563.994 154 564.013 154.019 564.039 154.007L568.591 151.672C568.599 151.668 568.602 151.661 568.606 151.645L568.859 144.185C568.867 143.775 569.096 143.369 569.41 143.09L584.527 129.504L579.926 131.476L564.732 145.241C564.342 145.624 564.208 146.076 564.2 146.459L563.994 153.958Z" fill="url(#paint13_linear_16_661)"/>
<path d="M567.335 136.87L594.996 125.018L594.828 124.789L567.109 136.567L567.335 136.87Z" fill="#F8CE93"/>
</g>
<defs>
<linearGradient id="paint0_linear_16_661" x1="556.026" y1="133.317" x2="556.059" y2="133.171" gradientUnits="userSpaceOnUse">
<stop stop-color="#AF6A38" stop-opacity="0"/>
<stop offset="0.086" stop-color="#AF6A38"/>
<stop offset="0.1977" stop-color="#B87542"/>
<stop offset="0.5828" stop-color="#D59C66"/>
<stop offset="0.7771" stop-color="#E4AF76"/>
<stop offset="0.9239" stop-color="#E4AF76" stop-opacity="0"/>
</linearGradient>
<linearGradient id="paint1_linear_16_661" x1="542.144" y1="138.431" x2="543.254" y2="138.431" gradientUnits="userSpaceOnUse">
<stop stop-color="#743F1A" stop-opacity="0"/>
<stop offset="0.4929" stop-color="#743F1A" stop-opacity="0.8872"/>
<stop offset="0.5" stop-color="#743F1A" stop-opacity="0.9"/>
<stop offset="0.5297" stop-color="#743F1A" stop-opacity="0.8466"/>
<stop offset="1" stop-color="#743F1A" stop-opacity="0"/>
</linearGradient>
<linearGradient id="paint2_linear_16_661" x1="561.939" y1="127.337" x2="564.717" y2="122.342" gradientUnits="userSpaceOnUse">
<stop offset="0.0327" stop-color="#E4AF76"/>
<stop offset="1" stop-color="#E9B880"/>
</linearGradient>
<linearGradient id="paint3_linear_16_661" x1="564.233" y1="178.44" x2="564.375" y2="178.665" gradientUnits="userSpaceOnUse">
<stop/>
<stop offset="1" stop-opacity="0"/>
</linearGradient>
<linearGradient id="paint4_linear_16_661" x1="532.433" y1="180.217" x2="532.414" y2="180.267" gradientUnits="userSpaceOnUse">
<stop/>
<stop offset="1" stop-opacity="0"/>
</linearGradient>
<linearGradient id="paint5_linear_16_661" x1="538.836" y1="137.662" x2="541.26" y2="138.666" gradientUnits="userSpaceOnUse">
<stop stop-color="#C37A44"/>
<stop offset="0.4442" stop-color="#BB713D"/>
<stop offset="0.6406" stop-color="#A05728"/>
<stop offset="1" stop-color="#964E23"/>
</linearGradient>
<linearGradient id="paint6_linear_16_661" x1="527.032" y1="128.69" x2="521.774" y2="121.31" gradientUnits="userSpaceOnUse">
<stop stop-color="#E9B880"/>
<stop offset="1" stop-color="#E4AF76"/>
</linearGradient>
<linearGradient id="paint7_linear_16_661" x1="531.335" y1="134.254" x2="531.236" y2="133.98" gradientUnits="userSpaceOnUse">
<stop stop-color="#C37A45" stop-opacity="0"/>
<stop offset="0.1334" stop-color="#C37A45"/>
<stop offset="0.2945" stop-color="#D08D55"/>
<stop offset="0.5021" stop-color="#DEA167"/>
<stop offset="0.6966" stop-color="#E8AF73"/>
<stop offset="0.8631" stop-color="#ECB477"/>
<stop offset="1" stop-color="#ECB477" stop-opacity="0"/>
</linearGradient>
<linearGradient id="paint8_linear_16_661" x1="554.711" y1="136.691" x2="549.903" y2="147.741" gradientUnits="userSpaceOnUse">
<stop offset="0.0881" stop-color="#AF6938"/>
<stop offset="0.4829" stop-color="#9A5227"/>
<stop offset="0.7792" stop-color="#8D4520"/>
</linearGradient>
<linearGradient id="paint9_linear_16_661" x1="532.275" y1="180.036" x2="532.283" y2="180.012" gradientUnits="userSpaceOnUse">
<stop stop-color="#322214"/>
<stop offset="0.2397" stop-color="#322314" stop-opacity="0.9891"/>
<stop offset="1" stop-color="#322214" stop-opacity="0"/>
</linearGradient>
<linearGradient id="paint10_linear_16_661" x1="524.819" y1="141.76" x2="524.514" y2="142.777" gradientUnits="userSpaceOnUse">
<stop offset="0.0476" stop-color="#C69866"/>
<stop offset="0.4156" stop-color="#BA8C5E"/>
<stop offset="0.8135" stop-color="#B5875B"/>
</linearGradient>
<linearGradient id="paint11_linear_16_661" x1="525.945" y1="145.219" x2="518.72" y2="137.195" gradientUnits="userSpaceOnUse">
<stop stop-color="#845F35"/>
<stop offset="0.4311" stop-color="#91673C"/>
<stop offset="0.4407" stop-color="#976A40"/>
<stop offset="0.8737" stop-color="#986B40"/>
<stop offset="1" stop-color="#AB8157"/>
</linearGradient>
<linearGradient id="paint12_linear_16_661" x1="564.51" y1="178.318" x2="564.527" y2="178.345" gradientUnits="userSpaceOnUse">
<stop stop-color="#322214" stop-opacity="0"/>
<stop offset="1" stop-color="#322214"/>
</linearGradient>
<linearGradient id="paint13_linear_16_661" x1="573.368" y1="144.851" x2="574.762" y2="137.803" gradientUnits="userSpaceOnUse">
<stop stop-color="#A9794B"/>
<stop offset="0.3857" stop-color="#AE7F53"/>
<stop offset="0.4557" stop-color="#AC7D50"/>
<stop offset="0.6236" stop-color="#A9794B"/>
<stop offset="1" stop-color="#B2875D"/>
</linearGradient>
<clipPath id="clip0_16_661">
<rect width="1092" height="364" fill="white"/>
</clipPath>
</defs>
</svg>
